<svg version="1.1" xmlns="http://www.w3.org/2000/svg" style="display: block;" viewBox="0 0 2048 2048" width="1024" height="1024" preserveAspectRatio="none">
<defs>
	<linearGradient id="Gradient1" gradientUnits="userSpaceOnUse" x1="996.06" y1="1376.9" x2="993.943" y2="1222.36">
		<stop class="stop0" offset="0" stop-opacity="1" stop-color="rgb(244,174,62)"/>
		<stop class="stop1" offset="1" stop-opacity="1" stop-color="rgb(255,241,115)"/>
	</linearGradient>
	<linearGradient id="Gradient2" gradientUnits="userSpaceOnUse" x1="1624.61" y1="1375.06" x2="1625.42" y2="1221.78">
		<stop class="stop0" offset="0" stop-opacity="1" stop-color="rgb(244,174,62)"/>
		<stop class="stop1" offset="1" stop-opacity="1" stop-color="rgb(255,241,116)"/>
	</linearGradient>
	<linearGradient id="Gradient3" gradientUnits="userSpaceOnUse" x1="1721.35" y1="1421.06" x2="1665.53" y2="1306.98">
		<stop class="stop0" offset="0" stop-opacity="1" stop-color="rgb(241,141,30)"/>
		<stop class="stop1" offset="1" stop-opacity="1" stop-color="rgb(241,173,62)"/>
	</linearGradient>
	<linearGradient id="Gradient4" gradientUnits="userSpaceOnUse" x1="1574.89" y1="414.509" x2="1482.51" y2="181.268">
		<stop class="stop0" offset="0" stop-opacity="1" stop-color="rgb(239,136,25)"/>
		<stop class="stop1" offset="1" stop-opacity="1" stop-color="rgb(252,236,112)"/>
	</linearGradient>
	<linearGradient id="Gradient5" gradientUnits="userSpaceOnUse" x1="684.087" y1="436.094" x2="569.763" y2="145.479">
		<stop class="stop0" offset="0" stop-opacity="1" stop-color="rgb(239,136,25)"/>
		<stop class="stop1" offset="1" stop-opacity="1" stop-color="rgb(252,236,113)"/>
	</linearGradient>
	<linearGradient id="Gradient6" gradientUnits="userSpaceOnUse" x1="1273.13" y1="1525.6" x2="1286.16" y2="1521.33">
		<stop class="stop0" offset="0" stop-opacity="1" stop-color="rgb(3,44,64)"/>
		<stop class="stop1" offset="1" stop-opacity="1" stop-color="rgb(13,70,91)"/>
	</linearGradient>
	<linearGradient id="Gradient7" gradientUnits="userSpaceOnUse" x1="1004.75" y1="1727.76" x2="1238.08" y2="1753.2">
		<stop class="stop0" offset="0" stop-opacity="1" stop-color="rgb(131,130,247)"/>
		<stop class="stop1" offset="1" stop-opacity="1" stop-color="rgb(59,214,245)"/>
	</linearGradient>
	<linearGradient id="Gradient8" gradientUnits="userSpaceOnUse" x1="718.685" y1="1599.85" x2="1039.67" y2="1669.23">
		<stop class="stop0" offset="0" stop-opacity="1" stop-color="rgb(255,87,221)"/>
		<stop class="stop1" offset="1" stop-opacity="1" stop-color="rgb(132,119,252)"/>
	</linearGradient>
	<linearGradient id="Gradient9" gradientUnits="userSpaceOnUse" x1="1614.06" y1="1655.78" x2="1581.97" y2="1525.67">
		<stop class="stop0" offset="0" stop-opacity="1" stop-color="rgb(73,43,97)"/>
		<stop class="stop1" offset="1" stop-opacity="1" stop-color="rgb(115,66,130)"/>
	</linearGradient>
	<linearGradient id="Gradient10" gradientUnits="userSpaceOnUse" x1="1790.91" y1="1537.82" x2="1951.95" y2="1535.64">
		<stop class="stop0" offset="0" stop-opacity="1" stop-color="rgb(85,190,242)"/>
		<stop class="stop1" offset="1" stop-opacity="1" stop-color="rgb(4,251,248)"/>
	</linearGradient>
	<linearGradient id="Gradient11" gradientUnits="userSpaceOnUse" x1="1383.31" y1="1487.87" x2="1544.11" y2="1536.85">
		<stop class="stop0" offset="0" stop-opacity="1" stop-color="rgb(255,89,211)"/>
		<stop class="stop1" offset="1" stop-opacity="1" stop-color="rgb(199,104,244)"/>
	</linearGradient>
	<linearGradient id="Gradient12" gradientUnits="userSpaceOnUse" x1="1616.25" y1="1722.25" x2="1897.01" y2="1743.08">
		<stop class="stop0" offset="0" stop-opacity="1" stop-color="rgb(138,122,246)"/>
		<stop class="stop1" offset="1" stop-opacity="1" stop-color="rgb(49,224,245)"/>
	</linearGradient>
	<linearGradient id="Gradient13" gradientUnits="userSpaceOnUse" x1="104.592" y1="1498.26" x2="273.619" y2="1541.54">
		<stop class="stop0" offset="0" stop-opacity="1" stop-color="rgb(255,91,211)"/>
		<stop class="stop1" offset="1" stop-opacity="1" stop-color="rgb(197,105,244)"/>
	</linearGradient>
	<linearGradient id="Gradient14" gradientUnits="userSpaceOnUse" x1="413.922" y1="1640.03" x2="677.61" y2="1638.54">
		<stop class="stop0" offset="0" stop-opacity="1" stop-color="rgb(121,151,242)"/>
		<stop class="stop1" offset="1" stop-opacity="1" stop-color="rgb(16,246,247)"/>
	</linearGradient>
	<linearGradient id="Gradient15" gradientUnits="userSpaceOnUse" x1="445.955" y1="1421.1" x2="393.556" y2="1312.36">
		<stop class="stop0" offset="0" stop-opacity="1" stop-color="rgb(241,140,29)"/>
		<stop class="stop1" offset="1" stop-opacity="1" stop-color="rgb(241,172,60)"/>
	</linearGradient>
	<linearGradient id="Gradient16" gradientUnits="userSpaceOnUse" x1="352.627" y1="1376.02" x2="350.156" y2="1222.48">
		<stop class="stop0" offset="0" stop-opacity="1" stop-color="rgb(244,174,62)"/>
		<stop class="stop1" offset="1" stop-opacity="1" stop-color="rgb(255,242,116)"/>
	</linearGradient>
	<linearGradient id="Gradient17" gradientUnits="userSpaceOnUse" x1="1546" y1="687.739" x2="1878.08" y2="676.502">
		<stop class="stop0" offset="0" stop-opacity="1" stop-color="rgb(126,152,244)"/>
		<stop class="stop1" offset="1" stop-opacity="1" stop-color="rgb(19,246,249)"/>
	</linearGradient>
	<linearGradient id="Gradient18" gradientUnits="userSpaceOnUse" x1="158.985" y1="716.603" x2="575.672" y2="761.421">
		<stop class="stop0" offset="0" stop-opacity="1" stop-color="rgb(255,94,219)"/>
		<stop class="stop1" offset="1" stop-opacity="1" stop-color="rgb(139,112,255)"/>
	</linearGradient>
	<linearGradient id="Gradient19" gradientUnits="userSpaceOnUse" x1="652.302" y1="745.821" x2="1043.49" y2="741.999">
		<stop class="stop0" offset="0" stop-opacity="1" stop-color="rgb(123,153,244)"/>
		<stop class="stop1" offset="1" stop-opacity="1" stop-color="rgb(15,250,250)"/>
	</linearGradient>
</defs>
<path transform="translate(0,0)" fill="rgb(4,8,35)" d="M 456.894 402.652 C 465.728 410.946 474.038 416.379 485.615 420.467 L 487.077 421.408 L 498.719 425.376 C 559.802 444.001 664.249 444.922 724.23 422.788 L 730.3 420.316 C 742.732 414.813 748.036 411.869 757.971 402.801 C 764.589 412.594 772.187 430.007 779.601 438.093 C 806.741 467.695 869.088 467.008 907.066 475.229 C 953.86 485.359 996.905 488.581 1026.72 531.792 C 1043.04 557.136 1047.15 585.886 1041.67 615.242 C 1034.63 655.694 1005.53 680.343 979.456 707.349 C 958.124 729.442 909.17 770.502 905.196 800.443 C 895.707 871.949 940.476 945.713 913.564 1017.77 C 905.955 1038.34 891.868 1055.88 873.425 1067.75 C 795.846 1117.55 715.378 1049.69 645.885 1020.25 C 609.095 1006.51 596.777 1008.26 561.101 1024.55 C 557.095 1026.38 553.116 1028.27 549.166 1030.21 C 520.17 1045.33 491.158 1062.25 460.605 1074.01 C 426.597 1087.09 389.353 1090.15 355.515 1074.83 C 337.673 1066.76 323.578 1054.37 312.917 1038.06 C 260.643 958.071 334.55 852.27 306.273 786.977 C 298.642 769.356 284.426 755.821 271.07 742.472 C 239.214 710.633 194.089 673.275 178.592 630.706 C 168.35 602.365 169.863 571.107 182.793 543.887 C 206.278 494.583 253.248 484.304 302.292 475.984 L 366.75 465.632 C 422.125 456.555 432.625 454.405 456.894 402.652 z M 518.547 750.974 C 564.015 735.098 559.869 634.744 547.217 598.044 C 540.47 578.472 527.252 561.081 504.375 564.176 C 457.908 580.798 462.175 682.29 475.755 719.879 C 483.022 739.995 495.595 754.133 518.547 750.974 z M 711.226 751.048 C 757.424 736.033 753.7 637.502 741.91 600.494 C 735.176 579.359 723.145 561.677 698.516 564.125 C 652.287 579.702 656.185 681.237 669.15 717.861 C 676.538 738.73 687.14 753.379 711.226 751.048 z"/>
<path transform="translate(0,0)" fill="url(#Gradient19)" d="M 757.971 402.801 C 764.589 412.594 772.187 430.007 779.601 438.093 C 806.741 467.695 869.088 467.008 907.066 475.229 C 953.86 485.359 996.905 488.581 1026.72 531.792 C 1043.04 557.136 1047.15 585.886 1041.67 615.242 C 1034.63 655.694 1005.53 680.343 979.456 707.349 C 958.124 729.442 909.17 770.502 905.196 800.443 C 895.707 871.949 940.476 945.713 913.564 1017.77 C 905.955 1038.34 891.868 1055.88 873.425 1067.75 C 795.846 1117.55 715.378 1049.69 645.885 1020.25 C 652.993 1018.77 650.806 1022.92 657.226 1020.7 C 661.455 1016.18 657.103 1001.61 666.702 996.534 C 662.954 991.793 654.599 992.651 648.907 986.312 L 646.008 984.418 C 654.061 982.912 702.654 1009.72 712.808 1014.68 C 722.33 1019.5 731.087 1025.93 740.952 1025.24 L 741.314 1024.76 C 739.374 1023.5 737.911 1022.56 736.041 1021.15 C 737.737 1020.53 750.222 1022.84 752.365 1023.64 C 763.104 1027.65 774.581 1039.89 786.095 1039.56 L 787.106 1040.8 L 785.743 1042.19 C 788.124 1044.27 788.875 1044.79 791.824 1044.7 L 790.274 1042.36 C 794.512 1040.37 810.093 1042.14 815.702 1042.57 L 816.712 1043.68 C 810.193 1045.47 806.538 1045.23 799.809 1045.11 C 809.431 1046.56 813.18 1046.86 823.125 1044.82 C 825.907 1042.66 825.705 1042.82 826.97 1039.5 C 829.956 1037.64 835.837 1038.45 839.691 1038.64 C 847.424 1032.51 855.351 1033.74 858.826 1023.3 C 859.891 1020.1 862.527 1015.2 864.106 1012.06 C 866.853 1011.56 866.867 1011.64 869.325 1010.39 C 878.904 993.936 874.942 995.814 875.337 977.88 C 875.361 976.826 877.721 976.075 879.131 975.377 C 884.025 961.804 878.842 950.54 878.528 937.134 C 877.433 938.472 875.832 944.795 875.128 947.016 C 874.279 941.535 871.074 934.287 876.43 929.94 L 877.379 931.956 C 877.66 928.662 878.181 915.455 877.111 913.027 C 872.723 903.076 872.487 892.318 871.492 881.588 C 870.578 882.82 871.195 882.097 869.454 883.583 C 867.361 881.311 868.223 882.603 867.659 879.057 C 869.402 876.359 870.672 875.112 870.452 871.956 L 868.677 871.538 L 869.326 870.113 C 867.234 858.467 861.753 822.702 869.937 813.406 C 873.951 770.847 888.562 752.984 917.18 723.172 C 926.427 713.548 935.804 704.051 945.31 694.684 C 951.648 688.535 964.407 676.693 969.397 670.154 C 982.919 657.461 1000.26 636.845 1005.84 619.054 C 1020.4 572.641 1000.14 535.45 955.669 519.618 C 939.947 513.905 918.627 510.758 901.913 507.948 C 872.986 503.084 844.619 499.145 815.816 493.332 C 791.465 487.919 780.625 483.958 761.698 467.482 C 745.475 451.337 741.002 440.542 730.3 420.316 C 742.732 414.813 748.036 411.869 757.971 402.801 z"/>
<path transform="translate(0,0)" fill="rgb(9,63,90)" d="M 869.326 870.113 C 867.234 858.467 861.753 822.702 869.937 813.406 C 869.845 833.203 871.408 842.209 873.84 861.504 C 880.481 914.203 908.377 987.882 866.334 1030.88 C 859.827 1037.54 846.732 1045.65 838.055 1047.43 L 838.577 1045.67 C 841.558 1044.12 844.011 1042.96 847.082 1041.6 C 842.422 1040.54 840.937 1042.11 837.77 1041.42 L 839.691 1038.64 C 847.424 1032.51 855.351 1033.74 858.826 1023.3 C 859.891 1020.1 862.527 1015.2 864.106 1012.06 C 866.853 1011.56 866.867 1011.64 869.325 1010.39 C 878.904 993.936 874.942 995.814 875.337 977.88 C 875.361 976.826 877.721 976.075 879.131 975.377 C 884.025 961.804 878.842 950.54 878.528 937.134 C 877.433 938.472 875.832 944.795 875.128 947.016 C 874.279 941.535 871.074 934.287 876.43 929.94 L 877.379 931.956 C 877.66 928.662 878.181 915.455 877.111 913.027 C 872.723 903.076 872.487 892.318 871.492 881.588 C 870.578 882.82 871.195 882.097 869.454 883.583 C 867.361 881.311 868.223 882.603 867.659 879.057 C 869.402 876.359 870.672 875.112 870.452 871.956 L 868.677 871.538 L 869.326 870.113 z"/>
<path transform="translate(0,0)" fill="rgb(9,56,89)" d="M 646.008 984.418 C 654.061 982.912 702.654 1009.72 712.808 1014.68 C 722.33 1019.5 731.087 1025.93 740.952 1025.24 L 741.314 1024.76 C 739.374 1023.5 737.911 1022.56 736.041 1021.15 C 737.737 1020.53 750.222 1022.84 752.365 1023.64 C 763.104 1027.65 774.581 1039.89 786.095 1039.56 L 787.106 1040.8 L 785.743 1042.19 C 788.124 1044.27 788.875 1044.79 791.824 1044.7 L 790.274 1042.36 C 794.512 1040.37 810.093 1042.14 815.702 1042.57 L 816.712 1043.68 C 810.193 1045.47 806.538 1045.23 799.809 1045.11 C 809.431 1046.56 813.18 1046.86 823.125 1044.82 C 825.907 1042.66 825.705 1042.82 826.97 1039.5 C 829.956 1037.64 835.837 1038.45 839.691 1038.64 L 837.77 1041.42 C 840.937 1042.11 842.422 1040.54 847.082 1041.6 C 844.011 1042.96 841.558 1044.12 838.577 1045.67 L 838.055 1047.43 C 787.841 1071.01 698.911 1003.57 648.907 986.312 L 646.008 984.418 z"/>
<path transform="translate(0,0)" fill="url(#Gradient18)" d="M 456.894 402.652 C 465.728 410.946 474.038 416.379 485.615 420.467 L 487.077 421.408 C 489.843 428.597 489.361 431.636 485.214 438.452 C 467.784 467.125 439.686 494.405 405.018 499.518 C 376.976 503.653 348.394 511.022 319.838 514.743 C 281.223 519.774 245.853 524.501 220.482 558.449 C 210.876 571.301 209.515 588.504 212.745 603.448 C 215.482 619.409 226.121 632.886 225.476 645.924 C 241.233 666.374 261.016 684.385 278.911 703.041 C 281.825 706.079 296.514 721.293 299.145 723.127 C 309.37 734.514 319.622 744.946 328.116 757.73 C 355.792 799.383 344.721 854.822 335.225 902.243 C 323.076 962.917 314.942 1044.42 399.151 1051.32 C 446.194 1055.17 499.679 1015.49 542.78 996.57 L 542.695 998.144 L 538.999 1000.19 C 538.816 1005.33 543.311 1023.14 547.699 1026.72 C 548.71 1027.54 548.92 1028.86 549.166 1030.21 C 520.17 1045.33 491.158 1062.25 460.605 1074.01 C 426.597 1087.09 389.353 1090.15 355.515 1074.83 C 337.673 1066.76 323.578 1054.37 312.917 1038.06 C 260.643 958.071 334.55 852.27 306.273 786.977 C 298.642 769.356 284.426 755.821 271.07 742.472 C 239.214 710.633 194.089 673.275 178.592 630.706 C 168.35 602.365 169.863 571.107 182.793 543.887 C 206.278 494.583 253.248 484.304 302.292 475.984 L 366.75 465.632 C 422.125 456.555 432.625 454.405 456.894 402.652 z"/>
<path transform="translate(0,0)" fill="rgb(60,31,92)" d="M 485.615 420.467 L 487.077 421.408 C 489.843 428.597 489.361 431.636 485.214 438.452 C 467.784 467.125 439.686 494.405 405.018 499.518 C 376.976 503.653 348.394 511.022 319.838 514.743 C 281.223 519.774 245.853 524.501 220.482 558.449 C 210.876 571.301 209.515 588.504 212.745 603.448 C 215.482 619.409 226.121 632.886 225.476 645.924 C 206.227 620.659 198.08 588.903 212.561 559.058 C 232.92 517.989 281.432 514.112 321.239 507.414 C 353.787 501.938 390.002 498.314 421.379 488.331 C 453.964 477.964 471.707 449.797 485.615 420.467 z"/>
<path transform="translate(0,0)" fill="rgb(60,31,92)" d="M 299.145 723.127 L 299.292 721.126 C 294.501 715.298 259.574 681.416 259.13 678.667 C 274.243 687.073 285.379 701.259 296.653 714.065 C 299.33 717.106 304.746 724.12 307.821 726.156 L 310.154 724.883 C 319.269 731.354 325.671 736.351 333.407 744.417 C 331.661 741.284 329.254 737.92 329.365 734.513 C 333.479 737.056 352.061 773.684 354.738 781.915 C 348.689 776.922 345.561 761.533 338.354 759.311 L 337.781 760.602 C 340.81 766.678 340.562 773.473 342.576 777.839 C 349.693 793.264 351.976 805.179 353.872 821.88 C 354.321 819.041 354.527 814.866 356.363 812.924 L 356.636 812.876 C 358.041 826.721 360.395 831.031 354.274 843.644 L 354.601 841.729 C 351.475 850.678 347.429 856.4 351.374 863.85 C 351.648 864.368 349.548 877.173 349.45 878.575 C 347.872 887.516 346.566 899.489 345.394 907.977 C 344.229 916.41 344.15 958.562 342.265 963.443 L 341.204 963.271 C 341.118 957.404 340.645 942.178 339.48 936.81 L 339.404 938.025 C 338.78 946.635 336.343 953.702 335.945 961.789 C 335.609 968.635 338.852 985.324 338.328 991.173 C 343.194 996.11 343.36 1002.73 347.353 1008.46 C 351.356 1014.2 356.159 1019.09 360.844 1024.28 L 362.635 1022.69 C 365.294 1027 364.554 1031.72 370.23 1034.37 C 389.02 1043.13 413.028 1037.47 433.599 1038.76 C 433.537 1037.34 433.5 1037.91 432.279 1036.38 C 425.631 1036.11 417.603 1036.41 411.307 1035.77 C 412.13 1033.54 438.285 1034.71 441.047 1030.96 C 446.467 1023.61 478.486 1022.29 480.362 1016.4 C 477.933 1015.43 479.104 1016.01 476.851 1014.67 C 483.545 1009.93 497.664 1007.88 504.381 1003.87 C 518.991 995.159 529.557 986.699 545.914 980.627 C 554.135 977.575 569.34 976.98 574.473 973.349 C 575.302 970.788 574.804 971.064 576.435 969.33 C 581.065 969.008 593.191 969.68 597.716 970.488 C 608.218 972.434 616.516 963.388 627.111 966.305 C 655.526 974.13 684.208 988.792 709.728 1003.4 C 716.252 1007.14 723.843 1010.47 730.11 1014.63 C 724.587 1016.97 718.589 1008.72 709.131 1008.83 C 711.473 1011.53 711.392 1011.4 712.808 1014.68 C 702.654 1009.72 654.061 982.912 646.008 984.418 L 648.907 986.312 C 654.599 992.651 662.954 991.793 666.702 996.534 C 657.103 1001.61 661.455 1016.18 657.226 1020.7 C 650.806 1022.92 652.993 1018.77 645.885 1020.25 C 609.095 1006.51 596.777 1008.26 561.101 1024.55 C 557.095 1026.38 553.116 1028.27 549.166 1030.21 C 548.92 1028.86 548.71 1027.54 547.699 1026.72 C 543.311 1023.14 538.816 1005.33 538.999 1000.19 L 542.695 998.144 L 542.78 996.57 C 499.679 1015.49 446.194 1055.17 399.151 1051.32 C 314.942 1044.42 323.076 962.917 335.225 902.243 C 344.721 854.822 355.792 799.383 328.116 757.73 C 319.622 744.946 309.37 734.514 299.145 723.127 z"/>
<path transform="translate(0,0)" fill="rgb(126,137,248)" d="M 542.78 996.57 C 565.074 983.051 599.513 974.294 625.449 978.983 C 631.779 980.128 639.295 982.869 646.008 984.418 L 648.907 986.312 C 654.599 992.651 662.954 991.793 666.702 996.534 C 657.103 1001.61 661.455 1016.18 657.226 1020.7 C 650.806 1022.92 652.993 1018.77 645.885 1020.25 C 609.095 1006.51 596.777 1008.26 561.101 1024.55 C 557.095 1026.38 553.116 1028.27 549.166 1030.21 C 548.92 1028.86 548.71 1027.54 547.699 1026.72 C 543.311 1023.14 538.816 1005.33 538.999 1000.19 L 542.695 998.144 L 542.78 996.57 z"/>
<path transform="translate(0,0)" fill="rgb(46,27,69)" d="M 338.328 991.173 C 343.194 996.11 343.36 1002.73 347.353 1008.46 C 351.356 1014.2 356.159 1019.09 360.844 1024.28 L 362.635 1022.69 C 365.294 1027 364.554 1031.72 370.23 1034.37 C 389.02 1043.13 413.028 1037.47 433.599 1038.76 C 420.432 1044.5 406.321 1044.31 392.485 1043.07 C 370.448 1041.09 349.076 1026.5 341.333 1005.5 C 339.534 1000.62 337.645 996.573 338.328 991.173 z"/>
<path transform="translate(0,0)" fill="rgb(65,31,87)" d="M 487.077 421.408 L 498.719 425.376 L 497.084 429.594 C 489.144 450.381 470.811 465.508 454.016 479.666 C 447.569 484.395 439.341 491.864 431.987 494.99 C 406.793 505.699 380.248 506.338 354.154 511.77 C 320.32 518.814 279.243 518.938 249.793 537.304 C 234.869 546.61 222.305 558.437 219.009 576.1 C 218.517 578.778 222.989 586.275 222.854 588.366 C 221.898 603.199 223.271 609.914 230.647 623.446 C 231.266 622.839 231.885 622.233 232.503 621.627 C 236.116 632.889 234.585 637.636 240.252 648.959 C 246.951 662.344 257.758 665.812 264.341 673.193 C 279.192 689.846 297.366 706.889 310.154 724.883 L 307.821 726.156 C 304.746 724.12 299.33 717.106 296.653 714.065 C 285.379 701.259 274.243 687.073 259.13 678.667 C 259.574 681.416 294.501 715.298 299.292 721.126 L 299.145 723.127 C 296.514 721.293 281.825 706.079 278.911 703.041 C 261.016 684.385 241.233 666.374 225.476 645.924 C 226.121 632.886 215.482 619.409 212.745 603.448 C 209.515 588.504 210.876 571.301 220.482 558.449 C 245.853 524.501 281.223 519.774 319.838 514.743 C 348.394 511.022 376.976 503.653 405.018 499.518 C 439.686 494.405 467.784 467.125 485.214 438.452 C 489.361 431.636 489.843 428.597 487.077 421.408 z"/>
<path transform="translate(0,0)" fill="rgb(9,63,90)" d="M 955.669 519.618 C 1000.14 535.45 1020.4 572.641 1005.84 619.054 C 1000.26 636.845 982.919 657.461 969.397 670.154 C 964.407 676.693 951.648 688.535 945.31 694.684 C 935.804 704.051 926.427 713.548 917.18 723.172 L 914.608 722.515 C 919.83 717.997 920.698 708.623 925.295 702.867 C 924.862 701.944 924.428 701.022 923.995 700.1 C 937.105 685.971 954.804 686.142 964.672 669.253 C 969.047 661.766 973.922 654.473 976.4 646.147 C 975.65 644.224 975.804 645.021 973.011 643.593 C 980.591 633.951 998.375 628.449 997.013 609.826 C 996.777 606.605 994.777 586.975 993.819 586.07 L 991.933 587.646 L 990.886 587.463 C 991.52 584.406 996.136 580.631 998.745 578.587 C 998.43 577.896 997.61 575.984 997.676 575.353 C 998.69 565.715 989.786 559.298 987.877 554.399 L 984.84 552.057 C 981.429 555.648 986.309 559.694 984.383 564.156 C 983.017 563.043 982.807 563.231 982.412 561.679 C 980.888 555.687 972.456 550.787 966.667 545.646 C 966.694 543.045 967.398 542.573 967.54 540.581 C 967.889 535.696 961.883 530.894 958.656 527.854 L 962.253 526.926 C 959.935 524.56 957.846 522.11 955.669 519.618 z"/>
<path transform="translate(0,0)" fill="rgb(9,63,90)" d="M 815.816 493.332 C 844.619 499.145 872.986 503.084 901.913 507.948 C 918.627 510.758 939.947 513.905 955.669 519.618 C 957.846 522.11 959.935 524.56 962.253 526.926 L 958.656 527.854 C 955.969 526.083 949.131 522.601 945.88 521.975 C 938.689 520.591 931.383 521.338 923.918 520.1 C 911.3 518.008 894.192 511.246 881.718 511.502 C 876.856 511.601 877.738 513.164 873.319 509.788 C 873.187 509.687 862.751 510.68 860.724 510.542 C 854.592 510.124 846.579 506.773 841.014 506.04 C 832.519 504.92 825.437 505.052 817.001 501.919 L 817.019 501.269 C 820.712 500.263 826.533 501.285 830.557 501.711 L 830.486 501.03 C 824.746 497.588 823.373 496.839 816.861 495.135 L 815.369 494.753 L 815.816 493.332 z"/>
<path transform="translate(0,0)" fill="rgb(9,56,89)" d="M 869.326 870.113 C 865.855 865.663 860.375 843.962 863.1 838.196 L 862.06 837.413 L 859.302 838.989 L 858.512 837.996 C 859.86 836.371 861.036 835.06 862.474 833.513 L 859.582 833.427 C 866.819 820.231 861.801 823.582 863.852 811.533 C 865.829 799.919 871.92 787.165 872.709 774.656 C 872.878 771.974 875.697 766.634 876.148 762.333 C 873.002 766.737 871.673 778.406 868.592 781.915 C 866.772 779.182 867.896 762.099 872.548 760.268 C 874.852 759.361 875.677 750.119 879.015 747.138 C 889.847 747.181 906.805 730.275 914.608 722.515 L 917.18 723.172 C 888.562 752.984 873.951 770.847 869.937 813.406 C 861.753 822.702 867.234 858.467 869.326 870.113 z"/>
<path transform="translate(0,0)" fill="rgb(9,56,89)" d="M 724.23 422.788 L 730.3 420.316 C 741.002 440.542 745.475 451.337 761.698 467.482 C 780.625 483.958 791.465 487.919 815.816 493.332 L 815.369 494.753 C 815.164 494.736 813.257 494.591 812.986 494.496 C 805.536 491.23 800.105 497.058 793.905 496.363 C 787.703 495.669 770.977 487.886 768.053 482.4 L 768.006 482.414 C 770.096 481.71 770.036 481.722 772.102 481.879 L 772.381 480.488 C 770.738 476.907 763.465 472.32 759.505 468.495 C 756.831 465.774 753.716 463.543 751.273 460.593 C 751.054 462.603 751.27 464.065 751.407 466.081 L 750.153 466.923 C 744.149 463.116 737.433 454.496 733.021 448.911 C 732.711 445.954 732.68 447.433 734.244 444.289 C 735.556 445.402 734.999 444.949 735.74 446.876 L 737.598 446.678 C 734.451 439.764 735.201 433.162 732.332 426.856 C 729.827 421.352 726.504 427.988 723.561 427.508 L 724.23 422.788 z"/>
<path transform="translate(0,0)" fill="rgb(65,31,87)" d="M 452.833 622.837 C 453.056 621.051 453.434 620.591 452.912 619.304 C 460.345 601.955 465.66 588.063 475.344 571.785 L 474.668 571.388 L 469.892 574.724 C 469.587 563.901 479.747 557.994 489.98 558.813 C 492.352 559.003 499.942 556.699 502.838 556.642 C 523.683 555.962 540.87 561.804 551.615 580.613 L 552.474 577.768 C 554.841 580.451 554.994 590.105 556.461 594.859 C 558.89 602.727 570.165 614.386 569.134 621.615 C 568.53 625.85 567.885 628.647 567.712 633.794 L 567.632 635.796 L 568.675 637.482 L 571.784 637.07 C 572.231 639.833 571.662 648.392 571.705 652.071 C 571.926 670.788 572.657 690.231 570.965 708.875 L 569.914 708.63 C 568.496 706.167 567.409 704.934 567.596 702.126 L 569.303 698.711 L 568.736 697.577 L 567.342 698.291 C 557.054 737.618 538.253 771.099 491.898 756.769 C 477.43 752.297 470.824 731.887 462.061 720.548 C 462.811 722.913 462.711 725.859 463.279 727.34 C 465.714 733.691 468.302 735.876 467.697 742.959 L 466.788 742.38 L 465.546 735.531 C 464.051 734.616 462.538 733.731 461.008 732.875 L 461.594 731.575 C 454.689 723.252 461.034 715.997 448.335 702.406 L 447.481 701.506 C 442.776 663.313 441.067 647.113 448.956 608.221 L 449.678 607.827 C 451.389 615.722 449.802 615.791 450.58 621.638 L 452.833 622.837 z M 518.547 750.974 C 564.015 735.098 559.869 634.744 547.217 598.044 C 540.47 578.472 527.252 561.081 504.375 564.176 C 457.908 580.798 462.175 682.29 475.755 719.879 C 483.022 739.995 495.595 754.133 518.547 750.974 z"/>
<path transform="translate(0,0)" fill="rgb(46,27,69)" d="M 462.061 720.548 C 462.811 722.913 462.711 725.859 463.279 727.34 C 465.714 733.691 468.302 735.876 467.697 742.959 L 466.788 742.38 L 465.546 735.531 C 464.051 734.616 462.538 733.731 461.008 732.875 L 461.594 731.575 C 454.689 723.252 461.034 715.997 448.335 702.406 L 447.481 701.506 C 442.776 663.313 441.067 647.113 448.956 608.221 L 449.678 607.827 C 451.389 615.722 449.802 615.791 450.58 621.638 L 452.833 622.837 C 452.409 629.11 457.742 635.605 454.72 641.739 L 452.649 637.749 C 451.134 640.206 451.782 640.264 452.306 643.945 C 449.984 644.271 450.894 644.276 448.553 643.543 C 456.339 658.372 446.88 696.257 462.061 720.548 z"/>
<path transform="translate(0,0)" fill="rgb(65,31,87)" d="M 680.627 555.963 C 682.585 555.638 684.201 555.239 686.131 554.772 L 687.992 556.01 L 686.711 555.916 C 687.29 556.194 689.17 557.591 689.87 558.114 C 694.577 556.376 699.625 555.764 704.611 556.326 C 707.802 556.686 718.103 557.152 720.117 557.721 C 733.306 561.448 749.992 591.857 755.854 603.627 L 756.7 605.344 C 758.435 603.877 759.822 602.475 761.442 600.883 C 762.509 603.173 766.073 624.403 765.931 626.518 L 764.196 627.062 L 762.237 624.201 L 760.539 624.968 C 761.774 629.881 761.454 636.236 763.507 640.361 L 765.981 639.051 C 766.47 659.066 764.947 683.491 759.655 703.843 C 759.052 706.162 758.931 703.633 758.478 707.297 C 759.857 710.233 760.301 710.74 760.767 713.992 C 758.854 717.238 760.158 716.438 757.366 717.578 L 755.872 714.527 C 743.411 746.287 737.667 759.751 700.5 759.49 C 695.967 757.715 688.38 758.104 685.023 756.776 C 671.941 751.605 662.325 733.874 656.737 721.635 C 655.601 719.147 654.102 715.551 651.972 714.793 C 651.179 721.022 656.265 720.572 652.682 727.705 C 643.204 707.338 636.041 668.163 639.188 645.787 C 639.467 643.806 639.891 640.913 641.526 639.757 L 642.483 643.356 C 644.568 637.516 647.527 635.454 647.575 628.747 L 647.593 624.761 C 647.605 621.315 648.88 619.13 650.379 615.991 C 649.043 616.24 647.837 616.498 646.541 616.929 C 645.147 612.365 646.365 611.491 648.867 607.616 L 649.558 606.566 C 648.173 605.347 648.46 605.529 647.41 603.957 C 647.65 599.655 647.72 599.724 649.227 595.62 L 650.929 596.209 L 651.615 598.327 L 650.251 600.263 L 650.996 600.508 C 653.707 598.931 654.996 595.314 656.477 592.36 L 657.442 592.523 C 661.369 585.204 665.096 577.705 670.056 571.017 C 667.264 573.344 664.991 575.064 662.044 577.197 L 660.11 576.443 L 660.204 576.899 C 660.596 569.555 675.043 559.681 680.627 555.963 z M 711.226 751.048 C 757.424 736.033 753.7 637.502 741.91 600.494 C 735.176 579.359 723.145 561.677 698.516 564.125 C 652.287 579.702 656.185 681.237 669.15 717.861 C 676.538 738.73 687.14 753.379 711.226 751.048 z"/>
<path transform="translate(0,0)" fill="rgb(4,8,35)" d="M 1395.87 391.952 C 1404.4 398.114 1410.33 400.554 1420.04 404.651 C 1423.09 405.45 1431.46 407.914 1434.11 407.902 L 1437.77 409.248 C 1486.75 419.844 1530.84 420.188 1580.26 411.855 C 1582.01 411.156 1598.85 407.211 1602.01 406.425 L 1604.88 405.12 C 1616.12 401.354 1620.7 398.626 1630.76 392.197 C 1642 415.838 1653.04 446.1 1680.02 454.508 C 1739.14 472.931 1836.54 461.29 1867.59 527.2 C 1878.44 550.647 1879.51 577.446 1870.58 601.685 C 1857.27 638.151 1816.23 669.921 1788.8 697.423 C 1778.58 707.662 1767.26 718.724 1761.75 732.365 C 1741.32 782.993 1800 873.915 1756.93 936.774 C 1747.89 950.021 1735.35 960.496 1720.71 967.034 C 1655.93 996.526 1592.39 939.568 1534.93 918.269 C 1497.23 904.296 1463.32 933.453 1430.72 947.511 C 1425.91 950.93 1417.95 954.205 1412.66 957.082 C 1369.05 980.776 1308.26 985.818 1274.01 943.025 C 1235.28 894.165 1262.44 827.552 1268.47 772.371 C 1272.18 738.413 1264.87 728.37 1244.66 703.734 C 1233.12 693.454 1220.48 680.166 1209.24 669.098 C 1182.23 642.479 1155.04 619.087 1150.61 578.975 C 1147.92 554.621 1154.52 530.269 1169.68 510.852 C 1190.85 483.717 1231.62 473.221 1264.66 469.721 C 1267.21 468.746 1279.55 466.812 1282.83 466.209 C 1303.78 462.359 1326.62 460.324 1346.86 454.02 C 1373.53 445.714 1384.54 415.769 1395.87 391.952 z M 1350.34 652.624 C 1360.19 650.057 1361.83 644.601 1369.61 638.024 C 1379.36 629.834 1391.18 624.489 1403.77 622.574 C 1420.68 620.067 1439.04 624.563 1452.38 635.256 C 1459.24 640.758 1464.13 646.867 1471.73 652.268 C 1479.63 651.42 1479.49 650.07 1482.63 643.125 C 1477.98 621.002 1471.13 606.229 1451.36 593.42 C 1435.69 583.079 1416.49 579.553 1398.16 583.652 C 1379.65 587.882 1363.56 599.238 1353.37 615.258 C 1346.78 625.686 1344.5 634.112 1343.7 646.328 C 1345.96 648.583 1347.85 650.611 1350.34 652.624 z M 1680.89 650.654 C 1684.46 632.961 1676.54 615.866 1664.3 603.326 C 1651.04 589.875 1632.99 582.244 1614.1 582.113 C 1595.24 581.959 1577.09 589.33 1563.67 602.594 C 1550.7 615.529 1544.86 629.755 1544.93 648.001 C 1547.94 649.828 1551.77 652.205 1555.23 650.582 C 1561.66 647.566 1568.84 639.682 1574.26 635.434 C 1592.33 621.281 1615.2 617.925 1636.54 626.224 C 1652.74 632.522 1658.86 641.82 1672.66 650.641 C 1674.9 652.074 1678.39 651.242 1680.89 650.654 z"/>
<path transform="translate(0,0)" fill="url(#Gradient17)" d="M 1604.88 405.12 C 1616.12 401.354 1620.7 398.626 1630.76 392.197 C 1642 415.838 1653.04 446.1 1680.02 454.508 C 1739.14 472.931 1836.54 461.29 1867.59 527.2 C 1878.44 550.647 1879.51 577.446 1870.58 601.685 C 1857.27 638.151 1816.23 669.921 1788.8 697.423 C 1778.58 707.662 1767.26 718.724 1761.75 732.365 C 1741.32 782.993 1800 873.915 1756.93 936.774 C 1747.89 950.021 1735.35 960.496 1720.71 967.034 C 1655.93 996.526 1592.39 939.568 1534.93 918.269 C 1497.23 904.296 1463.32 933.453 1430.72 947.511 C 1430.94 946.667 1431.49 945.727 1431.89 944.902 C 1461.44 929.134 1504.28 902.644 1535.79 916.671 C 1541.71 919.304 1552.36 924.129 1558.25 922.887 C 1561.58 919.77 1560.39 915.877 1562.86 912.055 C 1565.73 907.601 1567.03 905.266 1563.6 900.959 C 1556.51 898.339 1546.07 892.917 1539.64 891.083 C 1504.41 880.473 1472.96 894.643 1442.69 911.778 C 1437.23 914.868 1423.88 922.043 1417.88 922.402 C 1419.88 921.059 1423.4 919.146 1425.59 917.871 C 1439.39 911.669 1455.95 902.807 1469.71 895.894 C 1533.84 863.69 1584.61 916.075 1642.06 937.479 C 1661.53 944.735 1689.01 950.56 1709.1 940.226 C 1780.76 903.376 1717.68 800.572 1729.72 740.597 C 1741.8 677.058 1818.88 647.373 1842.98 590.641 C 1849.01 576.447 1848.78 556.903 1842.06 542.63 C 1825.58 507.671 1792.45 505.087 1759.57 498.85 C 1731.17 493.463 1694.92 489.725 1668.45 481.127 C 1635.41 470.39 1618.27 434.84 1604.88 405.12 z"/>
<path transform="translate(0,0)" fill="rgb(189,104,240)" d="M 1244.66 703.734 L 1245.34 702.071 C 1230.49 685.241 1212.92 671.429 1198.31 655.711 C 1203.44 647.803 1196.87 644.662 1202.29 637.341 C 1205.19 633.428 1206.14 632.599 1205.61 628.075 L 1206.19 627.815 C 1220.08 642.258 1234.47 656.208 1249.34 669.639 L 1251.22 669.757 C 1269.22 685.926 1282.79 700.956 1292.16 723.257 C 1303.48 760.077 1295.09 789.47 1289.37 826.723 C 1283.62 864.147 1272.56 916.133 1313.75 938.332 C 1332.64 948.33 1357.25 946.62 1377.08 940.263 C 1386.69 937.182 1412.8 923.567 1417.88 922.402 C 1423.88 922.043 1437.23 914.868 1442.69 911.778 C 1472.96 894.643 1504.41 880.473 1539.64 891.083 C 1546.07 892.917 1556.51 898.339 1563.6 900.959 C 1567.03 905.266 1565.73 907.601 1562.86 912.055 C 1560.39 915.877 1561.58 919.77 1558.25 922.887 C 1552.36 924.129 1541.71 919.304 1535.79 916.671 C 1504.28 902.644 1461.44 929.134 1431.89 944.902 C 1431.49 945.727 1430.94 946.667 1430.72 947.511 C 1425.91 950.93 1417.95 954.205 1412.66 957.082 C 1369.05 980.776 1308.26 985.818 1274.01 943.025 C 1235.28 894.165 1262.44 827.552 1268.47 772.371 C 1272.18 738.413 1264.87 728.37 1244.66 703.734 z"/>
<path transform="translate(0,0)" fill="rgb(189,104,240)" d="M 1395.87 391.952 C 1404.4 398.114 1410.33 400.554 1420.04 404.651 L 1420.35 408.383 C 1405.96 439.096 1391.21 470.04 1357.04 481.768 C 1340.15 487.565 1319.52 489.923 1301.82 493.289 C 1295.29 494.53 1274.81 498.576 1269.15 498.655 C 1261.92 495.747 1231.32 504.158 1223.21 507.06 C 1218.69 508.677 1208.31 514.818 1204.73 514.985 C 1200.97 506.785 1210.12 501.967 1216.08 497.135 C 1217.11 493.733 1216.99 493.296 1219.33 490.534 C 1221.69 493.953 1221.88 494.971 1225.85 495.356 L 1227.53 493.684 C 1228.55 489.79 1228.5 489.999 1227.69 486.019 L 1226 484.961 C 1223.77 485.789 1224.4 485.744 1222.11 485.909 L 1220.83 480.769 C 1228 478.143 1262.03 472.711 1264.66 469.721 C 1267.21 468.746 1279.55 466.812 1282.83 466.209 C 1303.78 462.359 1326.62 460.324 1346.86 454.02 C 1373.53 445.714 1384.54 415.769 1395.87 391.952 z"/>
<path transform="translate(0,0)" fill="rgb(9,56,89)" d="M 1602.01 406.425 L 1604.88 405.12 C 1618.27 434.84 1635.41 470.39 1668.45 481.127 C 1694.92 489.725 1731.17 493.463 1759.57 498.85 C 1792.45 505.087 1825.58 507.671 1842.06 542.63 C 1848.78 556.903 1849.01 576.447 1842.98 590.641 C 1818.88 647.373 1741.8 677.058 1729.72 740.597 C 1717.68 800.572 1780.76 903.376 1709.1 940.226 C 1689.01 950.56 1661.53 944.735 1642.06 937.479 C 1584.61 916.075 1533.84 863.69 1469.71 895.894 C 1455.95 902.807 1439.39 911.669 1425.59 917.871 L 1422.22 917.517 C 1427.33 912.979 1441.93 908.329 1447.09 905.162 C 1527.92 855.48 1565.08 903.16 1639.03 933.96 C 1655.94 941.004 1674.83 945.986 1693.29 942.964 C 1702.04 941.534 1717.16 935.546 1722.48 928.073 C 1716.5 929.619 1714.54 935.821 1708.77 934.583 L 1708.3 932.76 C 1713.41 926.486 1716.8 919.276 1722 913.183 C 1724.46 910.296 1725.13 913 1726.57 910.657 C 1733.53 899.375 1728.55 857.469 1726.58 845.011 L 1727.3 844.727 L 1731.02 849.222 C 1722 831.19 1727.18 817.558 1724.93 795.564 L 1726.51 794.167 C 1731.68 798.299 1732.27 827.732 1733.82 835.64 C 1738.09 857.346 1746.79 895.647 1731.44 914.869 C 1744.36 910.047 1741.94 865.548 1740.32 853.499 C 1736.12 822.231 1725.97 786.65 1726.45 755.321 C 1726.54 748.635 1727.31 741.975 1728.73 735.442 C 1731.82 721.705 1731.39 728.335 1728.08 716.485 C 1727.49 714.375 1741.58 693.076 1741.16 689.615 L 1738.56 689.187 C 1740.94 686.129 1739.49 687.044 1742.72 685.857 L 1745.16 688.1 C 1751.06 680.102 1760.94 671.204 1769.5 665.997 C 1774.45 662.987 1777.92 658.575 1783.07 655.49 L 1783.3 656.11 L 1778.62 662.923 C 1787.91 657.389 1785.62 646.981 1787.52 638.79 C 1793.13 633.803 1809.85 616.049 1814.23 613.338 C 1816.02 616.268 1814.78 615.483 1817.51 616.487 C 1832.78 612.099 1828.68 604.359 1834.47 595.139 L 1832.5 595.833 L 1831.64 595.063 L 1833.65 592.506 C 1831.95 592.467 1830.79 592.352 1829.1 592.191 L 1828 590.461 C 1829.43 582.999 1832.65 566.547 1836.36 560.373 L 1837.56 560.474 L 1837.95 566.346 L 1839.23 566.576 C 1846.98 557.262 1833.51 533.259 1821.46 532.425 C 1823.98 532.969 1824.05 532.848 1826.21 534.174 L 1825.76 535.248 L 1822.61 535.54 C 1823.9 542.248 1830.99 544.702 1831.47 554.949 C 1828.56 553.614 1822.74 542.305 1821.59 539.001 C 1819.69 533.489 1808.59 528.426 1809.58 524.25 C 1812.48 526.029 1812.92 526.706 1816.15 527.422 C 1815.57 524.87 1812.11 515.411 1810.51 514.465 C 1802.41 509.68 1792.33 507.401 1783.42 508.515 C 1784.78 511.791 1784.76 510.701 1784.83 513.992 C 1782.9 513.039 1782.99 512.624 1781.64 510.907 C 1778.29 510.217 1779.24 510.488 1775.47 511.941 L 1775.22 513.312 C 1776.34 513.433 1780.6 513.656 1781.05 514.197 L 1779.87 513.702 L 1779.51 514.694 C 1766.84 516.404 1751.96 511.43 1741.82 504.786 C 1738.4 502.548 1733.23 504.702 1729.52 501.006 C 1734.06 496.657 1747.28 502.538 1751.26 500.014 C 1745.46 497.938 1736.51 497.009 1730.03 495.82 C 1709.29 492.016 1687 489.688 1666.94 483.222 C 1659.41 480.795 1650.15 474.446 1644.09 469.399 C 1640.31 466.255 1631.64 456.148 1628.2 454.875 L 1627.57 457.361 C 1614.5 454.823 1600.53 433.914 1606.14 420.54 C 1609.09 421.934 1610.75 428.557 1614.77 432.356 C 1614.36 425.189 1607.83 418.521 1605.4 411.054 C 1602.88 414.2 1601.55 416.237 1598.35 418.61 C 1598.68 412.156 1600.43 412.132 1602.01 406.425 z"/>
<path transform="translate(0,0)" fill="rgb(251,95,220)" d="M 1244.66 703.734 C 1233.12 693.454 1220.48 680.166 1209.24 669.098 C 1182.23 642.479 1155.04 619.087 1150.61 578.975 C 1147.92 554.621 1154.52 530.269 1169.68 510.852 C 1190.85 483.717 1231.62 473.221 1264.66 469.721 C 1262.03 472.711 1228 478.143 1220.83 480.769 L 1222.11 485.909 C 1224.4 485.744 1223.77 485.789 1226 484.961 L 1227.69 486.019 C 1228.5 489.999 1228.55 489.79 1227.53 493.684 L 1225.85 495.356 C 1221.88 494.971 1221.69 493.953 1219.33 490.534 C 1216.99 493.296 1217.11 493.733 1216.08 497.135 C 1210.12 501.967 1200.97 506.785 1204.73 514.985 C 1208.31 514.818 1218.69 508.677 1223.21 507.06 C 1231.32 504.158 1261.92 495.747 1269.15 498.655 C 1240.47 504.365 1206.34 507.176 1189.62 533.632 C 1158.68 582.624 1202.3 624.088 1236.45 654.875 C 1239.89 657.975 1249.1 666.684 1251.22 669.757 L 1249.34 669.639 C 1234.47 656.208 1220.08 642.258 1206.19 627.815 L 1205.61 628.075 C 1206.14 632.599 1205.19 633.428 1202.29 637.341 C 1196.87 644.662 1203.44 647.803 1198.31 655.711 C 1212.92 671.429 1230.49 685.241 1245.34 702.071 L 1244.66 703.734 z"/>
<path transform="translate(0,0)" fill="rgb(60,31,92)" d="M 1269.15 498.655 C 1274.81 498.576 1295.29 494.53 1301.82 493.289 C 1319.52 489.923 1340.15 487.565 1357.04 481.768 C 1391.21 470.04 1405.96 439.096 1420.35 408.383 C 1425.18 428.572 1405.88 449.655 1393.43 463.422 C 1380.13 478.139 1372.81 485.185 1352.51 489.773 C 1316.92 497.818 1279.52 503.593 1243.88 510.097 C 1230.58 512.524 1203.21 527.482 1195.95 538.815 C 1183.04 559.556 1189.56 598.104 1205.89 615.983 C 1232.29 644.891 1267.55 671.472 1288.88 705.149 C 1292.72 711.208 1293.31 716.159 1292.16 723.257 C 1282.79 700.956 1269.22 685.926 1251.22 669.757 C 1249.1 666.684 1239.89 657.975 1236.45 654.875 C 1202.3 624.088 1158.68 582.624 1189.62 533.632 C 1206.34 507.176 1240.47 504.365 1269.15 498.655 z"/>
<path transform="translate(0,0)" fill="rgb(65,31,87)" d="M 1420.04 404.651 C 1423.09 405.45 1431.46 407.914 1434.11 407.902 C 1424.3 413.131 1427.1 428.697 1422.87 437.801 C 1417.46 449.469 1408.12 456.018 1399.06 464.518 C 1374.16 494.437 1344.93 494.922 1309.66 501.717 C 1286.82 506.116 1261.13 508.685 1239.02 516.346 C 1230.42 519.329 1204.6 538.499 1200.82 548.044 C 1199.24 559.506 1197.61 576.375 1196.28 588.522 C 1195.91 592.228 1212.87 620.143 1215.77 622.061 C 1229.39 631.064 1235.68 639.677 1246.49 651.194 C 1263.49 669.292 1282.62 686.088 1297.86 705.877 C 1299.59 708.061 1301.36 718.461 1300.7 722.085 C 1296.8 721.34 1299.01 720.754 1294.22 720.841 C 1293.45 722.82 1296.86 732.444 1297.66 735.61 C 1299.66 743.813 1300.56 752.247 1300.32 760.688 C 1298.99 798.146 1285.49 837.787 1285.28 875.099 C 1284.85 950.717 1345.43 954.185 1399.11 928.771 C 1406.86 925.11 1414.56 921.358 1422.22 917.517 L 1425.59 917.871 C 1423.4 919.146 1419.88 921.059 1417.88 922.402 C 1412.8 923.567 1386.69 937.182 1377.08 940.263 C 1357.25 946.62 1332.64 948.33 1313.75 938.332 C 1272.56 916.133 1283.62 864.147 1289.37 826.723 C 1295.09 789.47 1303.48 760.077 1292.16 723.257 C 1293.31 716.159 1292.72 711.208 1288.88 705.149 C 1267.55 671.472 1232.29 644.891 1205.89 615.983 C 1189.56 598.104 1183.04 559.556 1195.95 538.815 C 1203.21 527.482 1230.58 512.524 1243.88 510.097 C 1279.52 503.593 1316.92 497.818 1352.51 489.773 C 1372.81 485.185 1380.13 478.139 1393.43 463.422 C 1405.88 449.655 1425.18 428.572 1420.35 408.383 L 1420.04 404.651 z"/>
<path transform="translate(0,0)" fill="rgb(10,18,49)" d="M 1437.77 409.248 C 1486.75 419.844 1530.84 420.188 1580.26 411.855 C 1569.97 423.029 1552.67 423.295 1538.56 423.661 L 1537.49 422.041 L 1535.77 422.214 C 1535.1 423.268 1532.71 427.322 1531.56 427.56 C 1513.07 431.379 1496.05 425.197 1478.29 422.382 C 1476.84 423.426 1475.53 424.551 1474.15 425.682 C 1455.8 425.557 1460.62 425.644 1447.18 414.416 C 1445.38 414.589 1443.83 414.825 1442.04 415.107 C 1440.61 414.026 1439.41 413.135 1437.91 412.129 L 1436.72 411.341 L 1437.77 409.248 z"/>
<path transform="translate(0,0)" fill="rgb(46,27,69)" d="M 1544.93 648.001 L 1543.67 647.935 C 1541.19 641.807 1544.13 639.442 1541.61 635.211 L 1539.37 634.997 C 1536.64 618.71 1547.35 612.648 1548.61 605.272 C 1541.78 605.303 1538.47 626.049 1534.99 629.079 C 1534.7 619.76 1538.48 612.473 1543.79 605.156 C 1560.25 582.486 1579.98 568.26 1608.68 568.017 C 1643.95 567.719 1668.07 578.406 1686.14 609.296 C 1683.82 607.043 1678.81 601.804 1676.23 600.497 C 1678.39 603.764 1680.69 607.582 1679.38 611.62 L 1678.32 611.9 L 1677.82 609.457 C 1674.75 607.611 1674.2 607.779 1670.7 607.251 C 1673.5 614.058 1678.55 616.084 1680.31 625.029 C 1682.19 634.64 1688.05 639.528 1682.02 650.053 L 1680.89 650.654 C 1684.46 632.961 1676.54 615.866 1664.3 603.326 C 1651.04 589.875 1632.99 582.244 1614.1 582.113 C 1595.24 581.959 1577.09 589.33 1563.67 602.594 C 1550.7 615.529 1544.86 629.755 1544.93 648.001 z"/>
<path transform="translate(0,0)" fill="rgb(46,27,69)" d="M 1355.08 595.717 L 1353.93 596.62 C 1350.54 596.847 1350.07 596.696 1347.22 598.856 L 1347.46 597.269 L 1351.76 594.708 C 1352.89 591.89 1352.72 592.414 1354.72 590.065 C 1369.29 572.951 1391.02 567.794 1412.54 566.762 C 1433.38 565.762 1451.4 571.38 1466.33 586.27 C 1468.94 588.871 1473.87 592.513 1474.02 596.267 C 1468.43 591.204 1451.45 578.423 1444.31 580.218 L 1444.99 581.337 C 1449.63 582.243 1458.84 591.344 1461.94 595.709 L 1461.68 596.65 C 1458.84 594.241 1456 590.842 1453.01 590.853 C 1458.48 597.313 1465.28 602.34 1470.72 608.778 C 1476.68 615.843 1487.36 634.444 1482.63 643.125 C 1477.98 621.002 1471.13 606.229 1451.36 593.42 C 1435.69 583.079 1416.49 579.553 1398.16 583.652 C 1379.65 587.882 1363.56 599.238 1353.37 615.258 C 1346.78 625.686 1344.5 634.112 1343.7 646.328 L 1343.37 647.243 C 1341.99 644.431 1342.83 639.309 1342.83 635.368 C 1341.12 632.845 1342.28 633.739 1338.99 632.951 C 1338.34 630.651 1338.77 627.025 1340.19 625.289 C 1341.55 623.616 1340.24 619.153 1339.86 616.01 C 1342.47 609.548 1355.03 598.598 1355.08 595.717 z"/>
<path transform="translate(0,0)" fill="rgb(46,27,69)" d="M 1350.34 652.624 C 1360.19 650.057 1361.83 644.601 1369.61 638.024 C 1379.36 629.834 1391.18 624.489 1403.77 622.574 C 1420.68 620.067 1439.04 624.563 1452.38 635.256 C 1459.24 640.758 1464.13 646.867 1471.73 652.268 C 1464.98 654.559 1460.53 643.322 1456.1 640.351 C 1437.44 627.81 1419.5 618.44 1396.87 625.843 C 1380.5 631.199 1376.77 637.094 1364 645.266 C 1363.51 646.925 1363.01 647.626 1363.27 649.045 C 1371.51 645.292 1374.16 646.211 1382.17 637.925 C 1386.67 633.267 1401.13 627.914 1407.6 630.803 C 1415.83 635.554 1422.99 631.461 1432.38 633.28 C 1432.39 633.266 1432.4 633.253 1432.4 633.239 C 1431.46 634.84 1431.19 635.294 1430.42 637.005 C 1432.45 638.718 1432.9 638.774 1435.31 639.628 C 1443.52 642.538 1453.21 652.272 1458.96 658.857 C 1439.61 646.051 1429.77 635.836 1403.47 640.692 C 1392.8 642.663 1387.17 646.809 1378.61 653.01 L 1377.76 651.956 L 1379.56 646.633 C 1377.17 647.269 1378.06 646.86 1376.19 648.596 L 1375.2 649.507 C 1364.78 659.164 1364.96 650.821 1358.95 651.057 C 1355.9 653.006 1355.11 653.862 1351.29 653.735 L 1350.34 652.624 z"/>
<path transform="translate(0,0)" fill="rgb(10,18,49)" d="M 368.03 1268.57 C 356.145 1251.95 354.38 1231.29 376.624 1222.31 C 390.214 1216.82 409.76 1225.15 413.135 1240.02 C 415.719 1251.4 411.068 1259.33 405.566 1268.82 C 410.227 1279.89 418.183 1291.28 424.703 1301.46 C 430.217 1310.06 435.705 1318.37 445.528 1321.94 C 460.153 1320.06 469.835 1309.48 480.512 1299.4 C 476.714 1282.05 480.74 1264.02 500.872 1260.6 C 508.433 1259.3 516.197 1261.13 522.388 1265.66 C 528.003 1269.82 531.675 1276.09 532.555 1283.02 C 535.07 1301.41 524.242 1310.24 508.464 1315.44 C 504.105 1336.99 502.291 1359.09 498.427 1380.72 C 496.747 1390.13 493.531 1399.28 485.427 1404.96 C 495.061 1424.47 501.48 1443.88 523.949 1451.49 C 572.157 1467.8 644.798 1456.24 672.565 1509.89 C 681.646 1527.44 681.859 1549.18 675.494 1567.62 C 665.396 1596.87 638.121 1620.27 616.51 1641.36 C 606.055 1651.57 594.763 1661.98 589.117 1675.79 C 572.275 1716.99 616.948 1782.58 588.358 1836.34 C 581.315 1849.62 570.17 1860.26 556.585 1866.69 C 498.299 1894.94 442.025 1833.74 388.28 1824.31 C 369.206 1820.96 338.971 1845.76 322.071 1850.47 C 275.898 1879.14 206.329 1889.24 181.714 1827.82 C 163.923 1783.43 189.96 1733.5 187.494 1687.44 C 186.023 1682.51 184.847 1676.91 182.211 1672.53 C 160.653 1636.64 114.681 1611.27 99.6366 1571.37 C 92.0926 1551.92 92.7455 1530.25 101.446 1511.29 C 126.286 1456.83 206.057 1466.37 252.648 1450.49 C 272.911 1443.59 278.94 1423.46 287.296 1404.63 C 275.504 1395.56 274.843 1378.55 273.673 1364.79 C 270.947 1358.66 267.413 1324.38 265.675 1314.93 C 253.217 1311.14 237.707 1300.26 240.646 1286.65 C 248.761 1249.07 301.693 1250.64 293.536 1299.12 C 299.159 1304.94 323.507 1326.87 331.243 1321.3 C 344.092 1312.04 360.816 1282.65 368.03 1268.57 z"/>
<path transform="translate(0,0)" fill="rgb(4,8,35)" d="M 328.792 1420.41 C 370.951 1426.73 402.599 1427.93 445.225 1420.41 L 446.479 1421.22 C 446.466 1424.11 446.415 1427.04 446.597 1429.92 C 447.625 1446.21 453.954 1455.47 464.743 1467.21 C 510.721 1517.24 552.66 1499.16 607.21 1520.42 C 612.511 1522.48 618.722 1524.63 622.834 1528.69 C 627.165 1532.98 628.057 1543.09 627.675 1548.93 C 627.11 1557.58 584.165 1605.01 576.126 1612.34 C 572.12 1615.99 566.935 1618.17 562.883 1621.79 C 555.898 1628.03 551.992 1639.49 548.277 1647.93 C 545.529 1654.18 542.17 1660.7 540.178 1667.22 C 527.36 1709.23 550.168 1749.9 546.596 1791.84 C 545.851 1800.59 544.195 1812.55 536.882 1818.28 C 522.441 1829.58 470.797 1807.36 456.026 1799.58 C 445.609 1794.09 435.382 1785.29 424.622 1780.85 C 417.973 1778.11 408.33 1777.87 401.242 1777.25 C 392.91 1776.52 383.753 1775.71 375.439 1777.01 C 363.003 1778.95 339.128 1787.97 327.314 1793.68 C 303.089 1805.38 270.979 1829.07 242.997 1824.44 C 212.329 1819.37 228.54 1759.67 231.392 1739.9 C 233.57 1724.8 235.868 1708.11 234.517 1692.89 C 232.747 1672.94 227.135 1658.1 218.157 1640.52 C 216.11 1636.52 214.049 1631.28 211.274 1627.76 C 208.317 1624.01 201.269 1620.88 197.376 1617.26 C 181.413 1602.45 160.007 1580.47 148.173 1562.55 C 143.479 1555.44 140.925 1545.9 142.724 1537.45 C 144.457 1529.31 152.674 1526.66 158.948 1522.39 C 186.871 1503.37 222.543 1509.55 253.87 1502.01 C 261.551 1500.16 267.191 1495.3 273.991 1491.55 C 284.068 1485.98 294.901 1480.9 303.767 1473.42 C 311.221 1467.14 322.023 1446.2 326.216 1436.75 C 328.661 1431.24 325.658 1425.61 328.792 1420.41 z"/>
<path transform="translate(0,0)" fill="rgb(254,253,254)" d="M 245.324 1567.49 C 256.316 1569.01 268.434 1590.78 289.723 1593.13 C 305.522 1595.34 320.277 1594.14 333.648 1584.44 C 340.655 1579.36 350.448 1566.54 359.378 1568.47 C 365.06 1575.34 358.496 1590.61 354.862 1597.7 C 344.289 1613.78 328.685 1624.4 309.406 1626.66 C 292.814 1628.72 276.089 1624.04 262.966 1613.68 C 251.542 1604.62 233.775 1581.25 245.324 1567.49 z"/>
<path transform="translate(0,0)" fill="rgb(254,253,254)" d="M 415.247 1567.52 C 426.535 1568.15 434.945 1588.1 457.155 1592.43 C 494.939 1599.79 502.153 1582.41 526.853 1567.72 C 537.633 1572.15 528.841 1590.66 525.314 1597.81 C 515.013 1612.39 504.171 1621.42 486.189 1625.53 C 469.527 1629.39 452.009 1626.25 437.733 1616.83 C 423.924 1607.84 404.495 1583.91 415.247 1567.52 z"/>
<path transform="translate(0,0)" fill="url(#Gradient16)" d="M 368.03 1268.57 C 356.145 1251.95 354.38 1231.29 376.624 1222.31 C 390.214 1216.82 409.76 1225.15 413.135 1240.02 C 415.719 1251.4 411.068 1259.33 405.566 1268.82 C 410.227 1279.89 418.183 1291.28 424.703 1301.46 C 430.217 1310.06 435.705 1318.37 445.528 1321.94 C 460.153 1320.06 469.835 1309.48 480.512 1299.4 C 476.714 1282.05 480.74 1264.02 500.872 1260.6 C 508.433 1259.3 516.197 1261.13 522.388 1265.66 C 528.003 1269.82 531.675 1276.09 532.555 1283.02 C 535.07 1301.41 524.242 1310.24 508.464 1315.44 C 504.105 1336.99 502.291 1359.09 498.427 1380.72 C 496.747 1390.13 493.531 1399.28 485.427 1404.96 C 478.461 1408.42 471.101 1412.24 464.014 1415.32 C 457.426 1417.42 451.965 1418.8 445.225 1420.41 C 402.599 1427.93 370.951 1426.73 328.792 1420.41 L 322.079 1418.63 L 313.518 1416.23 L 309.591 1415.13 C 301.413 1412.22 294.906 1408.74 287.296 1404.63 C 275.504 1395.56 274.843 1378.55 273.673 1364.79 C 270.947 1358.66 267.413 1324.38 265.675 1314.93 C 253.217 1311.14 237.707 1300.26 240.646 1286.65 C 248.761 1249.07 301.693 1250.64 293.536 1299.12 C 299.159 1304.94 323.507 1326.87 331.243 1321.3 C 344.092 1312.04 360.816 1282.65 368.03 1268.57 z"/>
<path transform="translate(0,0)" fill="url(#Gradient15)" d="M 480.512 1299.4 C 476.714 1282.05 480.74 1264.02 500.872 1260.6 C 508.433 1259.3 516.197 1261.13 522.388 1265.66 C 528.003 1269.82 531.675 1276.09 532.555 1283.02 C 535.07 1301.41 524.242 1310.24 508.464 1315.44 C 504.105 1336.99 502.291 1359.09 498.427 1380.72 C 496.747 1390.13 493.531 1399.28 485.427 1404.96 C 478.461 1408.42 471.101 1412.24 464.014 1415.32 C 457.426 1417.42 451.965 1418.8 445.225 1420.41 C 402.599 1427.93 370.951 1426.73 328.792 1420.41 L 322.079 1418.63 L 313.518 1416.23 L 309.591 1415.13 C 301.413 1412.22 294.906 1408.74 287.296 1404.63 C 275.504 1395.56 274.843 1378.55 273.673 1364.79 C 277.778 1374.83 278.838 1369.52 285.989 1370.26 C 321.937 1373.95 348.391 1383.76 385.211 1370.66 C 409.224 1362.11 432.926 1354.97 449.244 1332.83 C 452.247 1328.75 458.471 1321.86 460.123 1319.34 C 453.663 1322.88 452.789 1323.78 445.528 1321.94 C 460.153 1320.06 469.835 1309.48 480.512 1299.4 z"/>
<path transform="translate(0,0)" fill="url(#Gradient14)" d="M 485.427 1404.96 C 495.061 1424.47 501.48 1443.88 523.949 1451.49 C 572.157 1467.8 644.798 1456.24 672.565 1509.89 C 681.646 1527.44 681.859 1549.18 675.494 1567.62 C 665.396 1596.87 638.121 1620.27 616.51 1641.36 C 606.055 1651.57 594.763 1661.98 589.117 1675.79 C 572.275 1716.99 616.948 1782.58 588.358 1836.34 C 581.315 1849.62 570.17 1860.26 556.585 1866.69 C 498.299 1894.94 442.025 1833.74 388.28 1824.31 C 369.206 1820.96 338.971 1845.76 322.071 1850.47 C 323.806 1844.39 365.699 1827.2 373.085 1824.71 C 388.909 1819.38 399.845 1823.73 413.88 1829.47 C 416.317 1827.05 421.081 1813.8 418.596 1810.01 C 371.9 1790.3 345.936 1817.03 304.969 1835.51 C 300.828 1837.38 296.691 1840.12 292.137 1839.35 C 324.794 1823.27 359.566 1799.55 395.003 1801.26 L 395.333 1799.64 C 425.478 1799.17 487.169 1849.93 523.47 1848.2 C 528.97 1847.94 549.01 1843.16 551.66 1839.17 C 548.15 1839.62 546.026 1841.12 542.907 1842.81 C 544.788 1840.1 547.919 1837.43 550.348 1835.07 C 560.538 1825.21 563.767 1820.64 568.248 1807.37 C 570.441 1806.25 571.083 1806.46 573.71 1806.1 C 577.249 1766.05 560.327 1726.63 562.377 1685.81 C 573.578 1628.24 632.026 1610.57 653.019 1559.94 C 657.695 1548.66 656.034 1531.18 649.926 1520.03 C 627.693 1479.45 556.099 1489.11 516.477 1474.07 C 485.493 1462.3 480.59 1448.45 466.59 1420.73 L 464.014 1415.32 C 471.101 1412.24 478.461 1408.42 485.427 1404.96 z"/>
<path transform="translate(0,0)" fill="rgb(9,63,90)" d="M 395.333 1799.64 C 425.478 1799.17 487.169 1849.93 523.47 1848.2 C 528.97 1847.94 549.01 1843.16 551.66 1839.17 C 548.15 1839.62 546.026 1841.12 542.907 1842.81 C 544.788 1840.1 547.919 1837.43 550.348 1835.07 C 560.538 1825.21 563.767 1820.64 568.248 1807.37 C 570.441 1806.25 571.083 1806.46 573.71 1806.1 C 564.297 1846.16 535.396 1857.09 497.875 1845.23 C 462.592 1834.09 431.237 1808.22 395.003 1801.26 L 395.333 1799.64 z"/>
<path transform="translate(0,0)" fill="rgb(189,104,240)" d="M 187.494 1687.44 C 189.675 1675.88 178.127 1663.12 173.21 1655.22 C 173.072 1655 176.836 1633.61 173.205 1629.91 C 172.561 1629.26 172.783 1629.18 173.373 1627.7 C 183.501 1633.82 200.79 1658.82 205.592 1671.31 L 206.068 1672.59 L 206.813 1671.23 C 228.464 1721.6 156.626 1836.53 246.029 1849.31 C 261.899 1851.58 277.449 1844.15 292.137 1839.35 C 296.691 1840.12 300.828 1837.38 304.969 1835.51 C 345.936 1817.03 371.9 1790.3 418.596 1810.01 C 421.081 1813.8 416.317 1827.05 413.88 1829.47 C 399.845 1823.73 388.909 1819.38 373.085 1824.71 C 365.699 1827.2 323.806 1844.39 322.071 1850.47 C 275.898 1879.14 206.329 1889.24 181.714 1827.82 C 163.923 1783.43 189.96 1733.5 187.494 1687.44 z"/>
<path transform="translate(0,0)" fill="url(#Gradient13)" d="M 287.296 1404.63 C 294.906 1408.74 301.413 1412.22 309.591 1415.13 C 298.388 1439.61 289.828 1461.75 261.242 1472.99 C 212.457 1492.15 97.6107 1476.32 121.849 1562.88 C 125.584 1576.22 157.569 1611.74 168.49 1619.32 C 180.317 1632.06 204.1 1653.76 206.813 1671.23 L 206.068 1672.59 L 205.592 1671.31 C 200.79 1658.82 183.501 1633.82 173.373 1627.7 C 172.783 1629.18 172.561 1629.26 173.205 1629.91 C 176.836 1633.61 173.072 1655 173.21 1655.22 C 178.127 1663.12 189.675 1675.88 187.494 1687.44 C 186.023 1682.51 184.847 1676.91 182.211 1672.53 C 160.653 1636.64 114.681 1611.27 99.6366 1571.37 C 92.0926 1551.92 92.7455 1530.25 101.446 1511.29 C 126.286 1456.83 206.057 1466.37 252.648 1450.49 C 272.911 1443.59 278.94 1423.46 287.296 1404.63 z"/>
<path transform="translate(0,0)" fill="rgb(46,27,69)" d="M 309.591 1415.13 L 313.518 1416.23 L 322.079 1418.63 C 315.621 1433.84 300.505 1454.16 291.002 1467.81 C 285.07 1476.32 247.813 1489.94 237.841 1490.36 C 234.638 1492.78 230.789 1496.52 227.312 1496.68 L 226.424 1495.18 C 225.448 1493.57 225.221 1493.18 224.105 1491.79 C 211.229 1493.14 172.667 1498.82 162.067 1504.74 L 162.455 1506.24 L 165.251 1506.68 L 165.285 1507.83 L 165.88 1507.61 L 161.492 1508.54 L 164.587 1510.27 C 152.87 1516.14 141.529 1520.32 136.624 1533.6 C 133.535 1541.97 139.108 1549.2 132.896 1555.31 C 129.431 1568.48 160.764 1595.53 167.271 1604.73 C 178.42 1620.5 202.205 1637.75 210.925 1652.47 L 213.716 1652.42 C 215.993 1657.45 217.291 1662.25 218.891 1667.51 C 216.273 1667 215.691 1663.68 212.947 1662.04 C 234.577 1713.51 210.182 1747.46 210.369 1794.78 L 211.238 1794.98 C 213.231 1786.77 213.016 1774.18 214.848 1764.29 L 215.972 1764.62 C 216.896 1772.47 215.273 1775.59 215.313 1783.67 C 215.367 1794.31 216.736 1807 217.624 1817.71 C 217.672 1818.29 222.72 1823.04 223.756 1823.81 C 242.413 1838.51 263.945 1833.27 285.473 1831 C 290.812 1830.44 308.153 1816.75 314.49 1814.42 C 331.17 1808.29 346.29 1798.38 363.665 1795.18 C 383.282 1791.58 398.42 1791.34 417.603 1797.36 C 420.337 1798.16 422.027 1798.73 423.676 1801.14 L 423.642 1802.24 C 416.641 1802.17 409.854 1800.1 403.224 1798.52 C 362.784 1788.91 317.141 1826.17 281.124 1836.47 C 269.232 1848.05 243.292 1845.12 228.643 1841.28 L 228.868 1842.36 C 230.447 1843.07 232.101 1843.74 233.624 1844.56 C 265.937 1861.99 329.589 1812.88 362.079 1803 C 372.876 1799.72 384.129 1798.06 395.333 1799.64 L 395.003 1801.26 C 359.566 1799.55 324.794 1823.27 292.137 1839.35 C 277.449 1844.15 261.899 1851.58 246.029 1849.31 C 156.626 1836.53 228.464 1721.6 206.813 1671.23 C 204.1 1653.76 180.317 1632.06 168.49 1619.32 C 157.569 1611.74 125.584 1576.22 121.849 1562.88 C 97.6107 1476.32 212.457 1492.15 261.242 1472.99 C 289.828 1461.75 298.388 1439.61 309.591 1415.13 z"/>
<path transform="translate(0,0)" fill="rgb(60,31,92)" d="M 309.591 1415.13 L 313.518 1416.23 C 312.67 1428.32 298.495 1454.76 288.375 1462.91 C 274.908 1473.76 257.404 1482.19 240.519 1486.39 C 203.724 1494.67 132.448 1491.35 127.608 1542.72 C 124.795 1572.56 150.967 1587.54 166.93 1609.06 C 170.662 1614.16 177.104 1623.1 181.161 1627.47 L 181.032 1628.71 C 179.917 1628.57 171.823 1620.39 170.173 1618.91 L 168.49 1619.32 C 157.569 1611.74 125.584 1576.22 121.849 1562.88 C 97.6107 1476.32 212.457 1492.15 261.242 1472.99 C 289.828 1461.75 298.388 1439.61 309.591 1415.13 z"/>
<path transform="translate(0,0)" fill="rgb(65,31,87)" d="M 168.49 1619.32 L 170.173 1618.91 C 171.823 1620.39 179.917 1628.57 181.032 1628.71 L 181.161 1627.47 C 191.584 1631.79 203.911 1647.16 207.974 1657.74 C 213.889 1673.13 217.791 1694.63 217.969 1711.33 C 218.318 1744.12 188.063 1818.36 230.161 1835.93 C 246.956 1842.94 264.362 1843.5 281.124 1836.47 C 269.232 1848.05 243.292 1845.12 228.643 1841.28 L 228.868 1842.36 C 230.447 1843.07 232.101 1843.74 233.624 1844.56 C 265.937 1861.99 329.589 1812.88 362.079 1803 C 372.876 1799.72 384.129 1798.06 395.333 1799.64 L 395.003 1801.26 C 359.566 1799.55 324.794 1823.27 292.137 1839.35 C 277.449 1844.15 261.899 1851.58 246.029 1849.31 C 156.626 1836.53 228.464 1721.6 206.813 1671.23 C 204.1 1653.76 180.317 1632.06 168.49 1619.32 z"/>
<path transform="translate(0,0)" fill="rgb(9,56,89)" d="M 542.907 1842.81 C 541.404 1842.26 539.894 1841.72 538.378 1841.2 C 537.734 1834.79 547.066 1831.38 550.812 1826.49 C 574.826 1795.15 551.466 1739.65 552.275 1703.45 C 552.438 1696.16 551.881 1689.61 553.76 1682.71 C 554.321 1681.18 559.553 1677.86 560.168 1673.86 L 558.344 1672.51 C 563.421 1629.27 606.498 1620.86 611.224 1602.25 C 615.994 1583.45 637.349 1573.56 640.825 1553.04 C 642.448 1543.46 641.513 1524.6 633.371 1518 C 627.611 1513.33 620.762 1511.38 616.216 1505.11 C 615.094 1503.57 614.261 1502.26 612.704 1501.12 C 611.232 1500.04 611.721 1500.58 610.696 1499.37 C 610.187 1498.76 608.933 1497.17 608.216 1496.93 C 603.579 1495.35 593.764 1497.25 588.44 1496.65 C 575.699 1495.22 562.9 1491.97 550.252 1489.74 C 540.419 1488.02 528.568 1487.25 519.236 1484.19 C 512.54 1481.98 504.746 1477.02 498.955 1472.94 L 499.538 1472.16 C 506.34 1474.38 512.283 1479.51 519.545 1479.07 C 523.678 1478.82 524.116 1480.44 528.252 1480.02 C 522.898 1476.89 508.217 1474.35 502.228 1470.9 C 497.377 1468.1 490.915 1462.42 486.479 1458.74 C 487.026 1463.13 492.102 1463.3 492.814 1467.9 L 491.603 1467.98 C 486.226 1465.27 480.453 1457.69 475.075 1453.83 C 471.869 1451.54 463.571 1434.31 465.304 1430.33 C 469.185 1432.89 473.845 1445.41 478.397 1449.45 C 474.803 1440.38 469.604 1431.94 465.636 1422.53 L 466.59 1420.73 C 480.59 1448.45 485.493 1462.3 516.477 1474.07 C 556.099 1489.11 627.693 1479.45 649.926 1520.03 C 656.034 1531.18 657.695 1548.66 653.019 1559.94 C 632.026 1610.57 573.578 1628.24 562.377 1685.81 C 560.327 1726.63 577.249 1766.05 573.71 1806.1 C 571.083 1806.46 570.441 1806.25 568.248 1807.37 C 563.767 1820.64 560.538 1825.21 550.348 1835.07 C 547.919 1837.43 544.788 1840.1 542.907 1842.81 z"/>
<path transform="translate(0,0)" fill="rgb(9,63,90)" d="M 568.248 1807.37 C 571.729 1785.73 567.113 1766.26 563.628 1745.23 C 561.604 1733.02 556.033 1696.69 562.377 1685.81 C 560.327 1726.63 577.249 1766.05 573.71 1806.1 C 571.083 1806.46 570.441 1806.25 568.248 1807.37 z"/>
<path transform="translate(0,0)" fill="rgb(4,8,35)" d="M 1562.83 1404.94 C 1570.65 1409.21 1576.26 1411.87 1584.66 1415.08 L 1596.31 1418.22 C 1634.09 1427.32 1690.47 1428.57 1728.03 1418.44 C 1731.19 1417.76 1735.62 1416.15 1738.82 1415.11 C 1746.01 1412.13 1752.85 1408.64 1759.82 1405.17 C 1770.05 1424.09 1775.93 1444.82 1797.27 1451.22 C 1845.4 1464.98 1917.87 1459.3 1945.26 1508.16 C 1968.12 1548.93 1944.02 1593.84 1911.26 1620.73 C 1887.67 1648.82 1856.81 1662.33 1860.47 1704.91 C 1864.41 1750.73 1888.42 1807.16 1855.26 1847.36 C 1842.36 1862.99 1825.61 1871.74 1805.43 1873.39 C 1750.46 1877.9 1692.34 1818.63 1654.73 1824.77 C 1622.87 1829.96 1595.06 1857.37 1564.04 1865.52 C 1549.38 1872.53 1528.22 1874.43 1512.24 1872.32 C 1493.48 1869.81 1476.53 1859.81 1465.26 1844.61 C 1437.33 1807.07 1455.38 1756.54 1461.08 1714.68 C 1464.87 1686.96 1463.12 1679.36 1446.57 1657.14 C 1437.84 1648 1430.21 1639.87 1421.23 1630.93 C 1401.99 1611.78 1382.72 1595.58 1373.48 1569.19 C 1366.78 1550.05 1366.7 1530.71 1375.45 1512.35 C 1402.18 1456.25 1474.65 1467.83 1524.48 1450.77 C 1547.69 1442.82 1552.92 1426.03 1562.83 1404.94 z M 1617.45 1532.04 C 1600.16 1511.39 1588.34 1510.44 1574.44 1534.79 C 1564.55 1561.8 1558.26 1623.88 1587.97 1645.59 C 1598.27 1653.12 1614.59 1639.65 1618.95 1628.38 C 1630.98 1597.25 1629.29 1563.12 1617.45 1532.04 z M 1729.39 1647.08 C 1741.27 1642.72 1743.12 1639.19 1749.38 1627.96 C 1762.19 1604.98 1763.79 1514.98 1724.13 1517.25 C 1690.12 1528.67 1691.61 1605.35 1706.36 1631.89 C 1711.23 1640.65 1718.83 1647.36 1729.39 1647.08 z"/>
<path transform="translate(0,0)" fill="url(#Gradient12)" d="M 1896.13 1606.84 C 1897.66 1612.95 1903.03 1622.63 1910.54 1620.02 L 1911.26 1620.73 C 1887.67 1648.82 1856.81 1662.33 1860.47 1704.91 C 1864.41 1750.73 1888.42 1807.16 1855.26 1847.36 C 1842.36 1862.99 1825.61 1871.74 1805.43 1873.39 C 1750.46 1877.9 1692.34 1818.63 1654.73 1824.77 C 1622.87 1829.96 1595.06 1857.37 1564.04 1865.52 C 1565.95 1860.88 1607.41 1846.66 1613.96 1838.18 C 1614.96 1832.38 1612.87 1824.66 1607.95 1821.28 C 1590.06 1825.98 1541.29 1860.63 1522.27 1849.52 C 1583.33 1847.48 1624.64 1790.9 1676.53 1802.6 C 1702.23 1808.4 1744.28 1836.04 1776.74 1846.41 C 1798.95 1853.09 1829.86 1849.7 1840.66 1826.16 C 1853.46 1810.59 1848.25 1777.95 1845.56 1759.71 C 1837.43 1717.44 1825.76 1676.71 1857.99 1642.74 C 1866.61 1633.65 1874.29 1623.66 1884.06 1615.6 C 1888.78 1614.6 1888.78 1614.07 1892.31 1610.61 L 1896.13 1606.84 z"/>
<path transform="translate(0,0)" fill="url(#Gradient11)" d="M 1562.83 1404.94 C 1570.65 1409.21 1576.26 1411.87 1584.66 1415.08 C 1573.49 1439.5 1569.13 1450.41 1547.86 1467.31 C 1512.89 1484.34 1470.08 1482.87 1432.6 1494.41 C 1394.72 1506.06 1380.49 1544.21 1403.43 1575.98 C 1408.49 1584.85 1449.86 1627.9 1459.64 1636.61 C 1462.42 1639.88 1464.85 1642.82 1467.45 1646.24 L 1466.85 1647.84 C 1462.63 1643.31 1441.19 1621.39 1439.84 1617.63 L 1438.49 1617.37 C 1435.99 1621.59 1439.54 1625.56 1435.68 1630.54 C 1434.02 1632.69 1432.55 1636.16 1432.61 1638.98 C 1437.31 1647.58 1445.84 1649.08 1446.57 1657.14 C 1437.84 1648 1430.21 1639.87 1421.23 1630.93 C 1401.99 1611.78 1382.72 1595.58 1373.48 1569.19 C 1366.78 1550.05 1366.7 1530.71 1375.45 1512.35 C 1402.18 1456.25 1474.65 1467.83 1524.48 1450.77 C 1547.69 1442.82 1552.92 1426.03 1562.83 1404.94 z"/>
<path transform="translate(0,0)" fill="rgb(189,104,240)" d="M 1446.57 1657.14 C 1445.84 1649.08 1437.31 1647.58 1432.61 1638.98 C 1432.55 1636.16 1434.02 1632.69 1435.68 1630.54 C 1439.54 1625.56 1435.99 1621.59 1438.49 1617.37 L 1439.84 1617.63 C 1441.19 1621.39 1462.63 1643.31 1466.85 1647.84 L 1467.45 1646.24 C 1490.57 1671.25 1487.28 1702.24 1481.94 1733.19 C 1474.56 1775.9 1457.91 1844.17 1522.27 1849.52 C 1541.29 1860.63 1590.06 1825.98 1607.95 1821.28 C 1612.87 1824.66 1614.96 1832.38 1613.96 1838.18 C 1607.41 1846.66 1565.95 1860.88 1564.04 1865.52 C 1549.38 1872.53 1528.22 1874.43 1512.24 1872.32 C 1493.48 1869.81 1476.53 1859.81 1465.26 1844.61 C 1437.33 1807.07 1455.38 1756.54 1461.08 1714.68 C 1464.87 1686.96 1463.12 1679.36 1446.57 1657.14 z"/>
<path transform="translate(0,0)" fill="url(#Gradient10)" d="M 1797.27 1451.22 C 1845.4 1464.98 1917.87 1459.3 1945.26 1508.16 C 1968.12 1548.93 1944.02 1593.84 1911.26 1620.73 L 1910.54 1620.02 C 1903.03 1622.63 1897.66 1612.95 1896.13 1606.84 L 1892.31 1610.61 C 1888.78 1614.07 1888.78 1614.6 1884.06 1615.6 C 1900.01 1597.96 1920.51 1583.95 1927.78 1560.02 C 1935.12 1538.31 1928.25 1513.47 1907.11 1501.92 C 1872.05 1482.76 1827.42 1485.52 1788.84 1473.5 C 1792.56 1462.43 1785.82 1463.49 1797.27 1451.22 z"/>
<path transform="translate(0,0)" fill="rgb(60,31,92)" d="M 1459.64 1636.61 C 1458.62 1630.31 1441.97 1614.85 1436.65 1609.35 L 1437.65 1609.01 C 1444.42 1612.04 1443.74 1615.59 1450.99 1618.96 C 1453.7 1623.47 1457.4 1623.33 1462.56 1625.87 C 1467.72 1633.05 1469.77 1633.01 1475.15 1642.34 C 1482.6 1655.28 1484.67 1659.28 1489.75 1672.82 C 1491.74 1674.66 1492.41 1675.4 1494.73 1676.85 C 1498.09 1689.41 1495.05 1752.58 1490.64 1764.62 C 1488.98 1762.62 1489 1760.88 1488.59 1758.29 C 1483.91 1768 1486.57 1801.58 1490.65 1812.74 C 1494.3 1822.72 1500.33 1829.21 1510 1833.59 C 1516.67 1836.62 1531.17 1841.04 1538.25 1838.33 C 1551.84 1833.12 1580.87 1817.29 1592.58 1815.83 C 1600.64 1814.83 1610.44 1804.85 1617.94 1801.06 C 1625.42 1797.28 1634.92 1794.43 1643.12 1792.54 C 1691.7 1781.38 1728.27 1819.99 1770.45 1832.59 L 1771.33 1833.76 C 1786.56 1853.65 1814.82 1837.1 1824.45 1840.19 C 1819.57 1844.77 1806.66 1848.42 1800.19 1848.42 C 1793.4 1848.42 1783.79 1845.16 1776.74 1846.41 C 1744.28 1836.04 1702.23 1808.4 1676.53 1802.6 C 1624.64 1790.9 1583.33 1847.48 1522.27 1849.52 C 1457.91 1844.17 1474.56 1775.9 1481.94 1733.19 C 1487.28 1702.24 1490.57 1671.25 1467.45 1646.24 C 1464.85 1642.82 1462.42 1639.88 1459.64 1636.61 z"/>
<path transform="translate(0,0)" fill="rgb(9,63,90)" d="M 1762.58 1456.45 C 1771.35 1465.02 1777.03 1469.23 1788.84 1473.5 C 1827.42 1485.52 1872.05 1482.76 1907.11 1501.92 C 1928.25 1513.47 1935.12 1538.31 1927.78 1560.02 C 1920.51 1583.95 1900.01 1597.96 1884.06 1615.6 C 1874.29 1623.66 1866.61 1633.65 1857.99 1642.74 C 1825.76 1676.71 1837.43 1717.44 1845.56 1759.71 C 1848.25 1777.95 1853.46 1810.59 1840.66 1826.16 C 1829.86 1849.7 1798.95 1853.09 1776.74 1846.41 C 1783.79 1845.16 1793.4 1848.42 1800.19 1848.42 C 1806.66 1848.42 1819.57 1844.77 1824.45 1840.19 C 1814.82 1837.1 1786.56 1853.65 1771.33 1833.76 L 1770.45 1832.59 C 1777.05 1832.1 1777.81 1832.23 1783.61 1835.4 C 1782.61 1835.88 1783.29 1835.61 1781.34 1835.9 L 1779.58 1836.15 L 1780.67 1837.39 C 1787.49 1838.96 1807.63 1840 1814.15 1837.64 C 1814.23 1827.47 1830.6 1819.61 1833.28 1813.86 C 1836.83 1806.24 1834.34 1789.22 1834.4 1780.56 C 1834.58 1755.77 1819.65 1713.38 1825.83 1689.61 L 1827.04 1693.36 L 1828.32 1693.02 C 1830.45 1679.58 1836.95 1657.3 1843.92 1645.37 C 1845.44 1642.77 1858.91 1633.59 1861.87 1631.62 C 1863.84 1628.43 1862.5 1628.14 1863.37 1624.62 L 1867.67 1622.67 C 1871.41 1618.09 1870.17 1616.06 1872.77 1611.55 C 1878.19 1608.92 1880.23 1609.48 1878.8 1603.89 L 1880.13 1602.69 L 1880.98 1605.08 L 1881.75 1604.88 C 1885.05 1598.41 1889.45 1592.56 1894.75 1587.58 L 1896.15 1586.27 C 1902.17 1580.54 1904.41 1583.52 1910.83 1580.65 C 1913.62 1579.41 1914.55 1568.06 1913.88 1564.54 L 1913.66 1563.35 C 1912.1 1564.3 1912.2 1565.09 1911.08 1567.26 L 1910.72 1566.16 C 1916.05 1553.53 1918.58 1532.06 1907.17 1521.82 C 1898 1513.59 1892.15 1510.64 1890.11 1497.89 C 1889.67 1495.11 1880.65 1493.45 1878.93 1494.03 C 1880.52 1496.26 1884.09 1497.19 1886.85 1498.3 L 1887.4 1499.65 L 1885.31 1500.61 C 1873.09 1492.35 1866.63 1499.27 1855.05 1501.44 C 1853.14 1501.8 1840.74 1498.01 1837.72 1497.14 C 1828.98 1486.4 1824.32 1492 1813.42 1488.53 C 1812.17 1488.13 1792.66 1481.8 1793.92 1482.54 C 1797.17 1480.73 1818.97 1483.96 1824.18 1484.58 C 1820.55 1482.79 1812.14 1481.25 1808.04 1480.5 C 1785.18 1476.26 1779.94 1474.19 1762.34 1459.98 L 1762.58 1456.45 z"/>
<path transform="translate(0,0)" fill="rgb(46,27,69)" d="M 1584.66 1415.08 L 1596.31 1418.22 C 1591.98 1423.11 1590.73 1432.93 1587.05 1438.72 C 1565.85 1472.15 1554.45 1477.16 1518.65 1489.09 L 1522.38 1491.15 C 1520.41 1493.45 1502.2 1496.98 1497.96 1495.24 L 1497.13 1493.59 C 1501.34 1492.17 1502.81 1495.28 1508.02 1491.35 C 1501.99 1489.03 1442.93 1499.61 1435.53 1505.5 L 1436.95 1506.65 C 1439.69 1506.27 1448.56 1504.62 1450.44 1505.37 C 1439.9 1512.08 1441.21 1509.4 1431.54 1512.64 C 1422.96 1517.85 1414.43 1530.18 1411.75 1539.73 C 1408.94 1549.8 1414.4 1562.11 1420.05 1570.3 C 1433.02 1589.1 1451.95 1602.87 1464.21 1622.35 C 1466.97 1626.73 1472.52 1630.57 1475.74 1634.72 C 1480.43 1640.47 1484 1648.32 1488 1654.75 C 1490.05 1658.04 1494.81 1665.59 1495.38 1668.96 L 1494.52 1669.74 L 1493.7 1666.98 C 1491.57 1667.93 1491.44 1670.41 1489.75 1672.82 C 1484.67 1659.28 1482.6 1655.28 1475.15 1642.34 C 1469.77 1633.01 1467.72 1633.05 1462.56 1625.87 C 1457.4 1623.33 1453.7 1623.47 1450.99 1618.96 C 1443.74 1615.59 1444.42 1612.04 1437.65 1609.01 L 1436.65 1609.35 C 1441.97 1614.85 1458.62 1630.31 1459.64 1636.61 C 1449.86 1627.9 1408.49 1584.85 1403.43 1575.98 C 1380.49 1544.21 1394.72 1506.06 1432.6 1494.41 C 1470.08 1482.87 1512.89 1484.34 1547.86 1467.31 C 1569.13 1450.41 1573.49 1439.5 1584.66 1415.08 z"/>
<path transform="translate(0,0)" fill="rgb(60,31,92)" d="M 1547.86 1467.31 L 1549.24 1468.06 C 1560.3 1462.07 1564.97 1451.21 1569.23 1449.53 C 1570.19 1457.97 1544.18 1476.74 1536.28 1479.85 C 1506.69 1491.49 1416.01 1489.58 1405.17 1526.27 C 1402.9 1532.37 1402.47 1533.57 1401.72 1540.27 C 1398.03 1545.97 1403.99 1568.56 1403.43 1575.98 C 1380.49 1544.21 1394.72 1506.06 1432.6 1494.41 C 1470.08 1482.87 1512.89 1484.34 1547.86 1467.31 z"/>
<path transform="translate(0,0)" fill="rgb(65,31,87)" d="M 1403.43 1575.98 C 1403.99 1568.56 1398.03 1545.97 1401.72 1540.27 C 1402.39 1585.09 1433.25 1590.03 1450.99 1618.96 C 1443.74 1615.59 1444.42 1612.04 1437.65 1609.01 L 1436.65 1609.35 C 1441.97 1614.85 1458.62 1630.31 1459.64 1636.61 C 1449.86 1627.9 1408.49 1584.85 1403.43 1575.98 z"/>
<path transform="translate(0,0)" fill="rgb(94,179,243)" d="M 1759.82 1405.17 C 1770.05 1424.09 1775.93 1444.82 1797.27 1451.22 C 1785.82 1463.49 1792.56 1462.43 1788.84 1473.5 C 1777.03 1469.23 1771.35 1465.02 1762.58 1456.45 C 1752.79 1445.28 1745.29 1428.64 1738.82 1415.11 C 1746.01 1412.13 1752.85 1408.64 1759.82 1405.17 z"/>
<path transform="translate(0,0)" fill="rgb(9,56,89)" d="M 1738.82 1415.11 C 1745.29 1428.64 1752.79 1445.28 1762.58 1456.45 L 1762.34 1459.98 C 1762.93 1462.71 1768.8 1467.35 1771.79 1470.93 L 1768.99 1469.32 L 1768.12 1469.95 L 1769.63 1472.03 C 1771.81 1472.81 1771.81 1472.61 1773.66 1473.88 C 1750.18 1482.25 1739.85 1424.94 1728.03 1418.44 C 1731.19 1417.76 1735.62 1416.15 1738.82 1415.11 z"/>
<path transform="translate(0,0)" fill="rgb(46,27,69)" d="M 1623.86 1527.84 L 1625.59 1527.23 C 1623.33 1520.58 1620.68 1517.65 1616.35 1512.15 L 1616.71 1510.64 L 1621.5 1514.14 L 1623.09 1513.89 C 1622.02 1509.2 1618.63 1508.47 1618.7 1505.46 L 1620.15 1504.75 L 1622.54 1505.72 C 1624.83 1508.52 1624.82 1510.03 1625.53 1513.57 L 1625.78 1514.86 C 1647.88 1523.4 1648.29 1544.05 1648.97 1564.42 L 1646 1566.46 C 1644.09 1571.34 1653.83 1602.93 1649.62 1613.39 C 1646.43 1621.34 1645.42 1636.88 1636.18 1641.81 L 1636.94 1641.6 C 1633.88 1643.68 1633.52 1644 1630.9 1646.61 C 1631.2 1662.71 1620.07 1655.84 1610.57 1659.48 L 1612.21 1660.6 L 1611.49 1661.48 L 1607.58 1661.6 L 1607.21 1662.74 L 1610.91 1663.29 L 1610.15 1664.52 C 1605.11 1666.37 1585.52 1670.6 1582.9 1664.49 L 1587.64 1663.47 L 1588.25 1661.98 L 1586.49 1659.45 L 1583.15 1659.28 L 1582.2 1660.25 L 1583.48 1661.22 L 1583.41 1662.05 C 1577.56 1662.36 1564.38 1655.45 1560.76 1650.52 C 1558.22 1647.06 1557.68 1640.36 1555.74 1638.59 L 1554.23 1639.14 C 1552.36 1637.18 1553.29 1630.33 1552.5 1625.51 C 1551.05 1627.6 1551.21 1627.62 1550.59 1630.09 L 1549.75 1629.43 C 1550.23 1618.89 1543.52 1611.12 1538.65 1599.26 L 1538.47 1599.18 C 1535.89 1590.43 1534.44 1578.49 1536.83 1569.65 C 1538.91 1571.32 1538.56 1571.27 1540.9 1572.36 C 1542.39 1565.89 1546.96 1553.47 1545.09 1548.54 L 1544.69 1547.51 C 1546.96 1534.44 1551.8 1522.16 1561.92 1513.08 L 1563.14 1513.48 C 1566.93 1512.76 1570.84 1507.18 1572.62 1506.41 C 1577.3 1504.42 1594 1502.44 1598.71 1503.89 L 1598.23 1505.15 C 1592.82 1508.99 1580 1507.96 1577.98 1512.4 C 1581.79 1511.94 1590.3 1511.86 1592.96 1511.32 L 1593.12 1511.65 L 1592.16 1512.42 C 1589.48 1512.76 1588.72 1512.55 1586.49 1513.95 C 1593.88 1515.31 1601.75 1515.68 1608.39 1518.19 C 1613.02 1520.14 1618.13 1522.12 1622.52 1524.46 L 1623.86 1527.84 z M 1617.45 1532.04 C 1600.16 1511.39 1588.34 1510.44 1574.44 1534.79 C 1564.55 1561.8 1558.26 1623.88 1587.97 1645.59 C 1598.27 1653.12 1614.59 1639.65 1618.95 1628.38 C 1630.98 1597.25 1629.29 1563.12 1617.45 1532.04 z"/>
<path transform="translate(0,0)" fill="url(#Gradient9)" d="M 1608.39 1518.19 C 1613.02 1520.14 1618.13 1522.12 1622.52 1524.46 L 1623.86 1527.84 C 1624.64 1529.33 1625.48 1530.53 1626.69 1531.73 C 1635.69 1540.66 1635.57 1550.92 1639.16 1562.17 C 1644.25 1583.67 1643.19 1608.62 1634.71 1629.12 C 1631.73 1636.31 1620.88 1651.51 1614.44 1654.99 C 1612.02 1656.3 1587.37 1660.51 1584.26 1657.88 C 1573.09 1648.46 1561.03 1617.53 1558.01 1604.36 C 1558.5 1602.16 1557.79 1594.28 1557.44 1590.95 C 1556.35 1580.48 1561.18 1555.57 1566.08 1546.47 L 1568.5 1547.78 C 1569.37 1542.05 1569.91 1540.91 1572.27 1535.56 L 1574.44 1534.79 C 1564.55 1561.8 1558.26 1623.88 1587.97 1645.59 C 1598.27 1653.12 1614.59 1639.65 1618.95 1628.38 C 1630.98 1597.25 1629.29 1563.12 1617.45 1532.04 L 1617.93 1530.05 C 1615.67 1525.09 1612.22 1522.15 1608.39 1518.19 z"/>
<path transform="translate(0,0)" fill="rgb(60,31,92)" d="M 1586.49 1513.95 C 1593.88 1515.31 1601.75 1515.68 1608.39 1518.19 C 1612.22 1522.15 1615.67 1525.09 1617.93 1530.05 L 1617.45 1532.04 C 1600.16 1511.39 1588.34 1510.44 1574.44 1534.79 L 1572.27 1535.56 C 1569.91 1540.91 1569.37 1542.05 1568.5 1547.78 L 1566.08 1546.47 C 1561.18 1555.57 1556.35 1580.48 1557.44 1590.95 C 1557.79 1594.28 1558.5 1602.16 1558.01 1604.36 C 1553.15 1593.05 1553.86 1579.17 1556.1 1567.36 C 1560.99 1541.62 1564.41 1529.15 1586.49 1513.95 z"/>
<path transform="translate(0,0)" fill="rgb(60,31,92)" d="M 1691.44 1522.03 C 1715.28 1498.79 1734.03 1494.36 1760.41 1520.07 C 1781.48 1540.61 1781.27 1585.63 1776.12 1612.11 C 1769.62 1645.65 1733.68 1681.97 1700.49 1652.52 C 1681.57 1634.98 1679.06 1620.66 1675.42 1595.41 C 1672.13 1572.54 1676.85 1540.52 1691.44 1522.03 z M 1729.39 1647.08 C 1741.27 1642.72 1743.12 1639.19 1749.38 1627.96 C 1762.19 1604.98 1763.79 1514.98 1724.13 1517.25 C 1690.12 1528.67 1691.61 1605.35 1706.36 1631.89 C 1711.23 1640.65 1718.83 1647.36 1729.39 1647.08 z"/>
<path transform="translate(0,0)" fill="rgb(4,8,35)" d="M 924.512 1404.94 C 925.887 1405.45 945.283 1415.04 945.605 1415.31 C 951.02 1416 955.564 1417.32 960.808 1418.7 C 994.499 1429.72 1062 1426.6 1096.59 1416.6 L 1101.47 1414.94 C 1108.92 1411.73 1115.26 1408.83 1122.51 1405.2 C 1134.35 1427.6 1138.56 1444.29 1164.5 1452.54 C 1173.1 1455.28 1201.85 1459.3 1204.8 1460.68 C 1218.59 1462.27 1231.71 1464.77 1245.07 1467.52 C 1288.84 1476.51 1321.85 1506.18 1315.61 1553.75 C 1311.08 1588.4 1284.69 1609.71 1261.36 1633.01 C 1261.17 1633.14 1260.99 1633.27 1260.81 1633.4 C 1241.17 1654.82 1220.99 1668.25 1222.81 1700.96 C 1225.4 1747.3 1252.68 1811.71 1215.66 1850.77 C 1176.44 1892.16 1122.65 1868.73 1080.91 1846.33 C 1064.85 1837.71 1045.35 1826.83 1027.42 1823.97 C 1019.9 1823.01 1009.06 1826.67 1001.92 1829.3 C 980.891 1838.78 961.047 1850.67 940.066 1860.23 C 915.339 1871.5 885.326 1878.67 858.935 1868.47 C 846.328 1863.6 835.518 1854.76 827.6 1843.87 C 788.341 1789.86 839.398 1719.99 821.425 1675.88 C 816.169 1662.98 805.642 1653.11 795.955 1643.48 C 774.971 1622.62 749.97 1601.69 738.076 1573.98 C 729.892 1555.35 729.472 1534.23 736.91 1515.29 C 755.126 1469.89 809.719 1464.33 851.982 1458.5 C 895.514 1452.5 907.4 1448.52 924.138 1405.92 L 924.512 1404.94 z"/>
<path transform="translate(0,0)" fill="url(#Gradient8)" d="M 924.512 1404.94 C 925.887 1405.45 945.283 1415.04 945.605 1415.31 L 946.316 1417.02 C 944.867 1419.66 943.269 1422.39 942.092 1425.15 C 936.46 1436.14 932.657 1443.9 925.146 1453.81 C 911.996 1467.03 901.89 1473.65 882.987 1477.33 C 874.922 1486.36 872.542 1482.85 862.458 1486.86 C 856.449 1486.85 832.522 1496.11 824.987 1496.18 C 807.847 1496.33 789.864 1498 778.37 1512.2 C 774.349 1516.87 767.863 1520.87 765.689 1528.05 C 758.638 1542.93 765.395 1558.67 764.245 1573.14 C 783.242 1605.95 829.029 1631.15 845.392 1672 C 847.729 1682.34 849.153 1688.93 848.993 1699.95 C 848.386 1741.82 816.898 1812.9 859.251 1842.09 C 871.664 1850.64 892.251 1850.56 906.468 1847.04 C 923.722 1842.76 940.28 1833.35 956.253 1825.64 C 958.689 1824.46 968.878 1819.21 970.942 1818.61 C 980.136 1817.93 989.591 1808.16 997.564 1811.71 C 998.86 1814.92 998.68 1813.3 998.071 1816.74 L 995.424 1818.9 L 995.827 1820.3 C 1001.03 1821.53 1004.18 1821.11 1006.34 1824.6 L 1005.98 1825.84 L 1002.09 1827.13 C 1001.77 1828.96 1001.67 1828.24 1001.92 1829.3 C 980.891 1838.78 961.047 1850.67 940.066 1860.23 C 915.339 1871.5 885.326 1878.67 858.935 1868.47 C 846.328 1863.6 835.518 1854.76 827.6 1843.87 C 788.341 1789.86 839.398 1719.99 821.425 1675.88 C 816.169 1662.98 805.642 1653.11 795.955 1643.48 C 774.971 1622.62 749.97 1601.69 738.076 1573.98 C 729.892 1555.35 729.472 1534.23 736.91 1515.29 C 755.126 1469.89 809.719 1464.33 851.982 1458.5 C 895.514 1452.5 907.4 1448.52 924.138 1405.92 L 924.512 1404.94 z"/>
<path transform="translate(0,0)" fill="rgb(60,31,92)" d="M 764.245 1573.14 C 761.121 1568.31 758.744 1563.03 757.196 1557.48 C 737.353 1486.4 840.539 1486.67 882.987 1477.33 C 874.922 1486.36 872.542 1482.85 862.458 1486.86 C 856.449 1486.85 832.522 1496.11 824.987 1496.18 C 807.847 1496.33 789.864 1498 778.37 1512.2 C 774.349 1516.87 767.863 1520.87 765.689 1528.05 C 758.638 1542.93 765.395 1558.67 764.245 1573.14 z"/>
<path transform="translate(0,0)" fill="url(#Gradient7)" d="M 1244.87 1617.34 L 1244.09 1619.05 C 1243 1621.39 1242.44 1622.15 1240.97 1624.25 C 1240.19 1632.96 1244.49 1635.57 1251.11 1640.43 C 1253.28 1638.14 1256.1 1634.74 1258.77 1633.44 L 1260.81 1633.4 C 1241.17 1654.82 1220.99 1668.25 1222.81 1700.96 C 1225.4 1747.3 1252.68 1811.71 1215.66 1850.77 C 1176.44 1892.16 1122.65 1868.73 1080.91 1846.33 C 1064.85 1837.71 1045.35 1826.83 1027.42 1823.97 C 1019.9 1823.01 1009.06 1826.67 1001.92 1829.3 C 1001.67 1828.24 1001.77 1828.96 1002.09 1827.13 L 1005.98 1825.84 L 1006.34 1824.6 C 1004.18 1821.11 1001.03 1821.53 995.827 1820.3 L 995.424 1818.9 L 998.071 1816.74 C 998.68 1813.3 998.86 1814.92 997.564 1811.71 C 989.591 1808.16 980.136 1817.93 970.942 1818.61 C 976.281 1815.13 986.237 1810.43 992.23 1808.03 C 1022.77 1795.76 1038.37 1800.61 1066.65 1812.57 C 1072.62 1816.68 1082.92 1820.88 1090.06 1824.66 C 1125.64 1843.49 1180.22 1870.72 1205.89 1821.83 C 1210.52 1813.03 1212.92 1797.43 1211.16 1787.35 C 1211.38 1773.66 1204.89 1740.36 1202.1 1725.61 C 1201.34 1712.89 1198.72 1706.09 1199.4 1691.12 C 1200.73 1661.52 1223.29 1636.19 1244.87 1617.34 z"/>
<path transform="translate(0,0)" fill="rgb(46,27,69)" d="M 945.605 1415.31 C 951.02 1416 955.564 1417.32 960.808 1418.7 L 959.278 1423.05 C 957.283 1423.4 956.873 1423.46 954.855 1423.45 C 951.892 1428.04 950.708 1435.74 950.01 1441.09 C 944.462 1441.26 943.847 1446.03 941.613 1450.89 L 944.134 1451.32 C 941.863 1456.88 933.54 1458.9 929.332 1462.39 C 921.282 1469.07 917.253 1478.97 906.577 1482.14 C 901.213 1483.73 894.955 1486.95 889.334 1488.29 C 879.966 1489.59 872.06 1486.3 863.005 1491.91 L 862.927 1492.73 C 866.236 1493.65 866.991 1493.75 870.264 1494.13 L 869.219 1494.87 L 869.401 1493.91 L 868.059 1495.24 C 858.654 1497.53 848.751 1498.59 839.182 1500.25 C 836.442 1500.73 833.933 1504.62 833.546 1504.57 C 831.319 1504.27 824.822 1500.04 822.884 1501.31 C 807.908 1511.14 800.907 1506.67 785.537 1520.66 C 775.37 1529.92 778.208 1535.38 771.538 1538.16 C 770.98 1533.71 772.969 1530.25 771.709 1526.51 C 767.808 1528.35 765.801 1536.51 765.761 1540.5 L 768.891 1540.91 C 769.032 1546.71 768.176 1555.96 771.397 1560.39 C 772.404 1556.37 770 1554.8 772.317 1548.24 L 773.042 1547.8 L 773.709 1549.57 C 781.007 1568.67 789.802 1580.32 801.677 1596.72 C 803.477 1599.2 807.786 1606.58 809.499 1608.16 C 826.743 1624.06 845.551 1640.52 853.276 1663.59 C 854.19 1666.32 858.405 1691.67 858.356 1694.44 C 858.192 1703.58 855.893 1711.12 857.448 1721.79 C 859.232 1721.53 858.557 1721.43 860.301 1719.18 L 861.104 1720.12 C 858.946 1732.68 859.005 1740.12 857.578 1752 L 850.52 1808.81 C 849.859 1814.13 856.386 1823.36 859.566 1827.7 C 864.662 1834.66 875.732 1838.36 884.017 1838.39 C 878.976 1834.83 867.912 1831.37 864.862 1826.15 L 865.842 1825.45 C 869.972 1827.17 874.554 1830.19 878.604 1831.28 C 893.173 1835.2 912.372 1832.69 926.338 1827.35 C 932.357 1825.05 938.153 1821.02 943.542 1818.69 C 949.605 1816.06 956.108 1815.59 962.163 1811.59 C 968.276 1807.7 972.238 1800.98 978.964 1797.92 C 981.784 1796.64 988.002 1798.87 990.489 1797.82 C 1013.19 1788.31 1036.61 1788 1059.85 1796.05 C 1070.93 1799.89 1083.12 1809.07 1093.57 1814.5 C 1099.48 1817.73 1107.42 1820.72 1113.72 1823.18 C 1128.2 1828.85 1143.01 1838.42 1158.88 1838.84 C 1149.33 1841.49 1125.2 1830.71 1116.08 1826.84 C 1113.88 1827.54 1113.11 1827.2 1110.89 1826.67 L 1110.1 1827.54 C 1118.96 1835.15 1134.55 1836.69 1145.42 1840.66 C 1150.1 1842.37 1154.21 1844.54 1158.62 1846.8 C 1165.64 1845.22 1174.67 1842.55 1181.8 1840.52 C 1182.63 1840.29 1184.64 1841.45 1185.46 1841.86 C 1151.77 1861.49 1099.31 1826.52 1068.2 1811.74 L 1066.65 1812.57 C 1038.37 1800.61 1022.77 1795.76 992.23 1808.03 C 986.237 1810.43 976.281 1815.13 970.942 1818.61 C 968.878 1819.21 958.689 1824.46 956.253 1825.64 C 940.28 1833.35 923.722 1842.76 906.468 1847.04 C 892.251 1850.56 871.664 1850.64 859.251 1842.09 C 816.898 1812.9 848.386 1741.82 848.993 1699.95 C 849.153 1688.93 847.729 1682.34 845.392 1672 C 829.029 1631.15 783.242 1605.95 764.245 1573.14 C 765.395 1558.67 758.638 1542.93 765.689 1528.05 C 767.863 1520.87 774.349 1516.87 778.37 1512.2 C 789.864 1498 807.847 1496.33 824.987 1496.18 C 832.522 1496.11 856.449 1486.85 862.458 1486.86 C 872.542 1482.85 874.922 1486.36 882.987 1477.33 C 901.89 1473.65 911.996 1467.03 925.146 1453.81 C 932.657 1443.9 936.46 1436.14 942.092 1425.15 C 943.269 1422.39 944.867 1419.66 946.316 1417.02 L 945.605 1415.31 z"/>
<path transform="translate(0,0)" fill="rgb(60,31,92)" d="M 793.817 1603.72 C 814.714 1615.72 845.03 1647.09 850.81 1671.21 C 855.34 1690.11 854.147 1720.92 851.473 1740.09 C 847.235 1770.29 831.726 1816.24 864.391 1836.14 C 874.654 1842.39 894 1843.04 905.669 1839.29 C 925.001 1833.09 944.716 1820.9 964.016 1813.49 C 971.863 1810.48 980.196 1803.98 988.414 1801.12 C 1015.8 1790.58 1043.21 1789.89 1069.39 1804.17 C 1075.55 1807.53 1082.58 1813.12 1088.51 1815.97 C 1096.25 1819.7 1108.69 1822.62 1116.08 1826.84 C 1113.88 1827.54 1113.11 1827.2 1110.89 1826.67 L 1110.1 1827.54 C 1118.96 1835.15 1134.55 1836.69 1145.42 1840.66 C 1150.1 1842.37 1154.21 1844.54 1158.62 1846.8 C 1165.64 1845.22 1174.67 1842.55 1181.8 1840.52 C 1182.63 1840.29 1184.64 1841.45 1185.46 1841.86 C 1151.77 1861.49 1099.31 1826.52 1068.2 1811.74 L 1066.65 1812.57 C 1038.37 1800.61 1022.77 1795.76 992.23 1808.03 C 986.237 1810.43 976.281 1815.13 970.942 1818.61 C 968.878 1819.21 958.689 1824.46 956.253 1825.64 C 940.28 1833.35 923.722 1842.76 906.468 1847.04 C 892.251 1850.56 871.664 1850.64 859.251 1842.09 C 816.898 1812.9 848.386 1741.82 848.993 1699.95 C 849.153 1688.93 847.729 1682.34 845.392 1672 C 851.811 1659.4 800.736 1614.4 793.817 1603.72 z"/>
<path transform="translate(0,0)" fill="rgb(60,31,92)" d="M 942.092 1425.15 C 943.269 1422.39 944.867 1419.66 946.316 1417.02 C 955.185 1437.82 917.511 1473.93 899.895 1480.55 C 890.421 1484.11 872.764 1486.15 862.458 1486.86 C 872.542 1482.85 874.922 1486.36 882.987 1477.33 C 901.89 1473.65 911.996 1467.03 925.146 1453.81 C 932.657 1443.9 936.46 1436.14 942.092 1425.15 z"/>
<path transform="translate(0,0)" fill="rgb(39,226,246)" d="M 1212.21 1485.21 C 1208.95 1481.81 1174.64 1477.45 1167.82 1476.1 C 1145.07 1471.58 1156.09 1448.2 1178.6 1457.39 C 1181.42 1458.54 1199.37 1461.34 1203.43 1461.89 L 1204.8 1460.68 C 1218.59 1462.27 1231.71 1464.77 1245.07 1467.52 C 1288.84 1476.51 1321.85 1506.18 1315.61 1553.75 C 1311.08 1588.4 1284.69 1609.71 1261.36 1633.01 C 1261.17 1633.14 1260.99 1633.27 1260.81 1633.4 L 1258.77 1633.44 C 1256.1 1634.74 1253.28 1638.14 1251.11 1640.43 C 1244.49 1635.57 1240.19 1632.96 1240.97 1624.25 C 1242.44 1622.15 1243 1621.39 1244.09 1619.05 L 1244.87 1617.34 C 1264.1 1598.75 1286.43 1578.47 1292.45 1552.32 C 1294.12 1534.47 1290.91 1517.16 1275.36 1506.02 C 1261.42 1491.78 1230.21 1489.15 1212.21 1485.21 z"/>
<path transform="translate(0,0)" fill="rgb(9,56,89)" d="M 1272.87 1565.8 C 1284.2 1562.42 1281.86 1547.16 1285.98 1537.35 L 1287.34 1537.2 C 1289.51 1542.09 1290.1 1547.2 1292.45 1552.32 C 1286.43 1578.47 1264.1 1598.75 1244.87 1617.34 C 1223.29 1636.19 1200.73 1661.52 1199.4 1691.12 C 1198.72 1706.09 1201.34 1712.89 1202.1 1725.61 C 1204.89 1740.36 1211.38 1773.66 1211.16 1787.35 C 1212.92 1797.43 1210.52 1813.03 1205.89 1821.83 C 1180.22 1870.72 1125.64 1843.49 1090.06 1824.66 C 1082.92 1820.88 1072.62 1816.68 1066.65 1812.57 L 1068.2 1811.74 C 1099.31 1826.52 1151.77 1861.49 1185.46 1841.86 C 1184.64 1841.45 1182.63 1840.29 1181.8 1840.52 C 1174.67 1842.55 1165.64 1845.22 1158.62 1846.8 C 1154.21 1844.54 1150.1 1842.37 1145.42 1840.66 C 1134.55 1836.69 1118.96 1835.15 1110.1 1827.54 L 1110.89 1826.67 C 1113.11 1827.2 1113.88 1827.54 1116.08 1826.84 C 1125.2 1830.71 1149.33 1841.49 1158.88 1838.84 C 1161.48 1839.63 1170.13 1839.35 1173 1839.07 C 1185.22 1837.89 1188.77 1821.98 1194.65 1814.77 L 1195.38 1817.56 C 1196.12 1812.84 1196.25 1813.78 1200.06 1810.75 C 1203.43 1808.06 1200.69 1791.66 1200.51 1784.92 C 1199.7 1789.7 1199.22 1794.1 1198.67 1798.9 C 1194.28 1794.42 1198.06 1784.6 1197.93 1778.88 C 1197.84 1774.8 1197.48 1770.62 1197.13 1766.55 L 1198.85 1765.76 L 1195.73 1762.99 L 1198.03 1761.71 L 1198.6 1758.5 L 1198.51 1761.32 L 1199.24 1760.28 L 1198.72 1758.65 C 1197 1758.48 1196.22 1758.32 1194.54 1757.99 C 1192.89 1754.76 1193.72 1754.23 1194.21 1749.83 C 1192.85 1747.41 1193.84 1748.05 1191.54 1747.36 C 1191.82 1750.04 1192.3 1751.81 1191.28 1754.27 L 1189.79 1754.33 C 1189.42 1738.82 1189.53 1720.73 1187.87 1705.59 L 1187.63 1706 C 1185.85 1698.67 1185.59 1673.36 1191.3 1668.49 L 1191.56 1675.33 L 1192.44 1674.7 C 1193.21 1672.16 1195.63 1663.22 1196.65 1661.58 C 1202.45 1652.26 1213.31 1645.85 1216.64 1634.82 C 1218.26 1629.47 1215.59 1632.97 1216.24 1628.66 C 1220.16 1623.24 1238.68 1601.85 1244.82 1603.4 C 1243.71 1606.37 1243.27 1606.75 1241.61 1609.41 L 1244.83 1607.32 L 1245.85 1608.5 C 1246.14 1611.74 1243.67 1612.5 1240.95 1616.98 C 1244.88 1615.81 1249.29 1610.45 1249.68 1606.01 C 1248.66 1604.43 1248.71 1604.71 1248.09 1602.96 L 1253.03 1601.12 C 1255.92 1597.91 1257.43 1596.63 1259.19 1592.78 C 1258.84 1590.53 1257.37 1588.65 1257.65 1587.47 C 1258.72 1583.08 1269.57 1567.84 1272.87 1565.8 z"/>
<path transform="translate(0,0)" fill="rgb(9,63,90)" d="M 1202.1 1725.61 C 1204.89 1740.36 1211.38 1773.66 1211.16 1787.35 C 1207.22 1778.19 1198.15 1734.07 1202.1 1725.61 z"/>
<path transform="translate(0,0)" fill="rgb(94,179,243)" d="M 1122.51 1405.2 C 1134.35 1427.6 1138.56 1444.29 1164.5 1452.54 C 1173.1 1455.28 1201.85 1459.3 1204.8 1460.68 L 1203.43 1461.89 C 1199.37 1461.34 1181.42 1458.54 1178.6 1457.39 C 1156.09 1448.2 1145.07 1471.58 1167.82 1476.1 C 1174.64 1477.45 1208.95 1481.81 1212.21 1485.21 C 1196.88 1484.21 1164.9 1477.89 1150.6 1473.07 C 1123.65 1463.97 1112.68 1438.87 1101.47 1414.94 C 1108.92 1411.73 1115.26 1408.83 1122.51 1405.2 z"/>
<path transform="translate(0,0)" fill="rgb(9,56,89)" d="M 1101.47 1414.94 C 1112.68 1438.87 1123.65 1463.97 1150.6 1473.07 C 1164.9 1477.89 1196.88 1484.21 1212.21 1485.21 C 1230.21 1489.15 1261.42 1491.78 1275.36 1506.02 C 1276.37 1510.12 1277 1509.72 1275.71 1512.82 C 1272.49 1514.39 1266.64 1513.29 1263.18 1512.42 C 1257.13 1507.56 1247.63 1505.18 1241.54 1502 L 1244.24 1501.04 C 1238.44 1499.3 1231.43 1498.82 1225.44 1497.39 C 1206.69 1492.9 1188.03 1489.71 1168.98 1486.96 C 1165.59 1486.47 1162.21 1485.38 1160.37 1482.43 L 1161.28 1481.64 C 1170.27 1486.57 1182.92 1482.1 1191.73 1485.1 C 1198.89 1487.54 1203.89 1488.45 1211.7 1487.88 C 1209.84 1487.85 1204.08 1486.39 1201.31 1485.96 C 1179.44 1482.58 1156.22 1479.44 1136.59 1468.75 C 1127.03 1463.55 1129.31 1462.66 1121.56 1455.59 L 1121.31 1456.86 C 1126.8 1463.27 1137.72 1473.42 1145.61 1477.08 C 1148.04 1478.21 1146.97 1477.31 1150.34 1479.52 L 1150.28 1480.87 C 1136.72 1486.08 1102.4 1440.4 1097.07 1430.52 C 1096.2 1428.91 1096.53 1418.97 1096.59 1416.6 L 1101.47 1414.94 z"/>
<path transform="translate(0,0)" fill="url(#Gradient6)" d="M 1275.36 1506.02 C 1290.91 1517.16 1294.12 1534.47 1292.45 1552.32 C 1290.1 1547.2 1289.51 1542.09 1287.34 1537.2 L 1285.98 1537.35 C 1281.86 1547.16 1284.2 1562.42 1272.87 1565.8 C 1273.58 1563.14 1277.34 1559.35 1277.12 1557.98 C 1276.17 1552.07 1275.21 1528.2 1272.06 1524.73 C 1270.6 1523.11 1262.84 1517.27 1260.01 1514.22 C 1261.69 1514.24 1260.92 1514.19 1262.82 1514.42 L 1264.25 1514.6 L 1263.18 1512.42 C 1266.64 1513.29 1272.49 1514.39 1275.71 1512.82 C 1277 1509.72 1276.37 1510.12 1275.36 1506.02 z"/>
<path transform="translate(0,0)" fill="rgb(254,253,254)" d="M 998.535 1586.25 C 995.441 1613.62 971.545 1633.85 944.031 1632.37 C 916.518 1630.89 894.924 1608.23 894.779 1580.68 C 894.634 1553.12 915.988 1530.23 943.484 1528.47 C 970.98 1526.7 995.088 1546.67 998.47 1574.01 C 998.972 1578.07 998.994 1582.18 998.535 1586.25 z"/>
<path transform="translate(0,0)" fill="rgb(4,8,35)" d="M 995.915 1586.87 C 992.668 1598.17 981.537 1605.32 969.907 1603.56 C 958.276 1601.8 949.755 1591.68 949.995 1579.92 C 950.236 1568.16 959.163 1558.41 970.856 1557.13 C 982.548 1555.84 993.378 1563.43 996.16 1574.86 L 998.47 1574.01 C 998.972 1578.07 998.994 1582.18 998.535 1586.25 L 995.915 1586.87 z"/>
<path transform="translate(0,0)" fill="rgb(179,180,204)" d="M 998.47 1574.01 C 998.972 1578.07 998.994 1582.18 998.535 1586.25 L 995.915 1586.87 C 997.039 1582.96 997.123 1578.82 996.16 1574.86 L 998.47 1574.01 z"/>
<path transform="translate(0,0)" fill="rgb(254,253,254)" d="M 1097.02 1528.67 C 1125.71 1526.22 1150.93 1547.56 1153.28 1576.26 C 1155.62 1604.96 1134.2 1630.1 1105.49 1632.35 C 1076.92 1634.58 1051.93 1613.29 1049.6 1584.73 C 1047.27 1556.17 1068.47 1531.1 1097.02 1528.67 z"/>
<path transform="translate(0,0)" fill="rgb(4,8,35)" d="M 1122.87 1557.45 C 1135.57 1554.84 1147.99 1563.03 1150.59 1575.73 C 1153.19 1588.44 1145 1600.85 1132.29 1603.44 C 1119.6 1606.04 1107.2 1597.85 1104.6 1585.16 C 1102 1572.46 1110.18 1560.06 1122.87 1557.45 z"/>
<path transform="translate(0,0)" fill="url(#Gradient5)" d="M 580.208 213.388 C 566.119 191.932 561.482 168.037 585.56 150.372 C 601.807 138.453 629.797 142.508 640.413 160.286 C 652.716 181.247 648.927 195.933 635.018 213.642 C 643.568 229.071 653.503 243.522 662.125 258.286 C 689.81 305.691 712.575 293.552 745.421 256.754 C 742.032 243.825 740.79 231.241 747.563 218.96 C 757.987 200.056 785.136 195.087 802.975 205.808 C 811.453 210.839 817.512 219.11 819.753 228.71 C 826.429 256.736 809.377 271.676 785.293 279.451 C 782.065 302.138 778.646 324.798 775.036 347.427 C 772.151 365.527 770.928 389.248 757.971 402.801 C 748.036 411.869 742.732 414.813 730.3 420.316 L 724.23 422.788 C 664.249 444.922 559.802 444.001 498.719 425.376 L 487.077 421.408 L 485.615 420.467 C 474.038 416.379 465.728 410.946 456.894 402.652 C 445.18 386.84 446.192 374.105 442.669 355.563 C 437.98 330.881 435.77 304.221 430.119 279.852 C 417.331 274.525 403.505 268.831 398.006 255.139 C 390.078 235.396 398.918 212.066 418.433 203.831 C 428.396 199.611 439.626 199.507 449.666 203.542 C 458.794 207.266 466.067 214.468 469.88 223.56 C 474.521 234.684 473.036 244.959 470.054 256.116 C 482.609 270.64 517.323 304.861 535.821 281.996 C 550.652 263.663 571.853 234.976 580.208 213.388 z"/>
<path transform="translate(0,0)" fill="url(#Gradient4)" d="M 1491.78 234.608 C 1485.01 226.532 1480.48 218.386 1481.63 207.377 C 1482.58 198.982 1486.86 191.321 1493.52 186.123 C 1500.51 180.73 1509.36 178.353 1518.1 179.52 C 1536.09 181.828 1548.09 198.483 1545.23 216.586 C 1544.12 223.56 1539.28 229.983 1534.61 235.145 C 1563.48 281.509 1572.85 322.972 1623.49 271.021 C 1619.67 249.836 1623.79 228.696 1648.85 225.338 C 1657.62 224.119 1666.52 226.485 1673.52 231.901 C 1688.62 243.504 1688.98 262.85 1677.3 277.148 C 1671.93 283.708 1664.34 286.462 1656.44 288.694 C 1653.31 305.21 1651.53 321.568 1648.76 338.039 C 1645.61 356.8 1647.01 379.825 1630.76 392.197 C 1620.7 398.626 1616.12 401.354 1604.88 405.12 L 1602.01 406.425 C 1598.85 407.211 1582.01 411.156 1580.26 411.855 C 1530.84 420.188 1486.75 419.844 1437.77 409.248 L 1434.11 407.902 C 1431.46 407.914 1423.09 405.45 1420.04 404.651 C 1410.33 400.554 1404.4 398.114 1395.87 391.952 C 1392.92 389.111 1388.31 384.528 1387.01 380.663 C 1377.82 353.24 1377.5 316.865 1370.33 288.808 C 1316.54 271.363 1348.09 211.763 1387.03 228.396 C 1394.1 231.349 1399.67 237.041 1402.47 244.172 C 1406.07 253.235 1404.95 260.838 1402.41 269.86 C 1415.91 284.621 1440.49 310.717 1457.99 287.742 C 1469.86 272.158 1483.79 252.463 1491.78 234.608 z"/>
<path transform="translate(0,0)" fill="url(#Gradient3)" d="M 1643.07 1267.9 C 1621.63 1237.92 1646.3 1208.56 1677.44 1225.32 C 1694.55 1234.53 1689.9 1254.29 1679.78 1268.56 C 1685.09 1279.46 1692.67 1290.78 1699.37 1300.92 C 1705.36 1309.98 1711.22 1320.05 1722.39 1322.46 C 1737.77 1315.43 1742.95 1311.17 1755.16 1299.33 C 1744.14 1255.26 1797.19 1247 1806.91 1281.06 C 1811.91 1298.59 1798.93 1309.5 1783.4 1315.75 C 1778.44 1340.66 1776.87 1369.45 1769.34 1393.64 C 1768.04 1397.83 1763.13 1402.31 1759.82 1405.17 C 1752.85 1408.64 1746.01 1412.13 1738.82 1415.11 C 1735.62 1416.15 1731.19 1417.76 1728.03 1418.44 C 1690.47 1428.57 1634.09 1427.32 1596.31 1418.22 L 1584.66 1415.08 C 1576.26 1411.87 1570.65 1409.21 1562.83 1404.94 C 1548.78 1392.23 1549.08 1375.79 1546.95 1357.63 C 1544.7 1349.13 1542.28 1326.55 1540.13 1315.31 C 1524.2 1310.73 1514.14 1300.36 1516.77 1282.97 C 1517.79 1275.87 1521.68 1269.51 1527.54 1265.39 C 1533.78 1261 1541.58 1259.42 1549.04 1261.06 C 1569.05 1265.35 1571.8 1282.26 1567.67 1299.31 C 1592.65 1324.03 1606.16 1333.56 1625.9 1297.84 C 1631.4 1287.88 1637.71 1278.52 1643.07 1267.9 z"/>
<path transform="translate(0,0)" fill="url(#Gradient2)" d="M 1643.07 1267.9 C 1621.63 1237.92 1646.3 1208.56 1677.44 1225.32 C 1694.55 1234.53 1689.9 1254.29 1679.78 1268.56 C 1685.09 1279.46 1692.67 1290.78 1699.37 1300.92 C 1705.36 1309.98 1711.22 1320.05 1722.39 1322.46 C 1726.5 1322.85 1728.33 1321.9 1732.26 1320.59 C 1723.35 1339.36 1695.81 1356.47 1676.92 1363.91 C 1635.94 1380.05 1591.29 1379.6 1550.62 1362.9 C 1549.28 1362.35 1547.88 1359.12 1546.95 1357.63 C 1544.7 1349.13 1542.28 1326.55 1540.13 1315.31 C 1524.2 1310.73 1514.14 1300.36 1516.77 1282.97 C 1517.79 1275.87 1521.68 1269.51 1527.54 1265.39 C 1533.78 1261 1541.58 1259.42 1549.04 1261.06 C 1569.05 1265.35 1571.8 1282.26 1567.67 1299.31 C 1592.65 1324.03 1606.16 1333.56 1625.9 1297.84 C 1631.4 1287.88 1637.71 1278.52 1643.07 1267.9 z"/>
<path transform="translate(0,0)" fill="url(#Gradient1)" d="M 1004.87 1268.8 C 994.059 1251.86 993.208 1230.22 1015.07 1222.48 C 1022.54 1219.81 1030.78 1220.36 1037.82 1224 C 1057.59 1234.24 1052.05 1253.49 1042.61 1268.78 C 1047.43 1278.39 1069.99 1316.73 1080.96 1321.21 C 1086.83 1323.6 1097.55 1316.53 1102.86 1313.41 C 1106.04 1309.22 1112.99 1303.61 1117.04 1299.55 C 1113.84 1282.14 1117.81 1264.5 1137.86 1261.07 C 1145.47 1259.76 1153.29 1261.57 1159.55 1266.08 C 1165.14 1270.12 1168.82 1276.29 1169.72 1283.13 C 1172.16 1301.24 1161 1310.28 1145.65 1315.53 C 1141.75 1340.56 1140.05 1387.78 1122.51 1405.2 C 1115.26 1408.83 1108.92 1411.73 1101.47 1414.94 L 1096.59 1416.6 C 1062 1426.6 994.499 1429.72 960.808 1418.7 C 955.564 1417.32 951.02 1416 945.605 1415.31 C 945.283 1415.04 925.887 1405.45 924.512 1404.94 C 917.331 1400.25 913.907 1390.39 913.122 1382.23 C 911.749 1377.5 910.008 1361.71 909.236 1355.95 C 907.479 1342.56 905.421 1329.21 903.065 1315.92 C 864.81 1301.84 873.264 1260.28 910.319 1261.05 C 929.158 1261.44 933.5 1282.5 930.753 1299.22 C 938.656 1306.35 957.905 1325.64 967.938 1321.25 C 980.597 1315.72 999.342 1280.96 1004.87 1268.8 z"/>
<path transform="translate(0,0)" fill="rgb(241,155,43)" d="M 1117.04 1299.55 C 1113.84 1282.14 1117.81 1264.5 1137.86 1261.07 C 1145.47 1259.76 1153.29 1261.57 1159.55 1266.08 C 1165.14 1270.12 1168.82 1276.29 1169.72 1283.13 C 1172.16 1301.24 1161 1310.28 1145.65 1315.53 C 1141.75 1340.56 1140.05 1387.78 1122.51 1405.2 C 1115.26 1408.83 1108.92 1411.73 1101.47 1414.94 L 1096.59 1416.6 C 1062 1426.6 994.499 1429.72 960.808 1418.7 C 955.564 1417.32 951.02 1416 945.605 1415.31 C 945.283 1415.04 925.887 1405.45 924.512 1404.94 C 917.331 1400.25 913.907 1390.39 913.122 1382.23 C 914.835 1377.78 913.149 1374.61 913.598 1369.02 C 919.562 1364.88 934.748 1370.5 941.355 1372.9 C 962.453 1380.56 991.65 1378.93 1013.27 1374.34 C 1032.49 1370.27 1061.49 1358.74 1076.43 1345.23 C 1083.06 1339.24 1089.64 1330.29 1095.68 1324.24 C 1105.22 1314.69 1105.29 1318.65 1113 1306.68 L 1104.18 1314.03 L 1102.86 1313.41 C 1106.04 1309.22 1112.99 1303.61 1117.04 1299.55 z"/>
<path transform="translate(0,0)" fill="rgb(46,27,69)" d="M 619.1 1181.15 C 631.903 1181.01 644.801 1180.79 657.603 1180.93 C 663.887 1181 669.902 1181.92 672.197 1188.26 C 671.562 1196.37 644.08 1229.88 637.254 1238.88 C 646.009 1238.78 675.917 1235.83 675.546 1247.51 C 673.216 1251.32 673.363 1251.17 669.819 1253.89 C 660.869 1254.58 623.236 1256.77 617.029 1251.81 C 615.069 1250.24 613.944 1248.7 613.841 1246.1 C 613.516 1237.86 642.312 1204.53 648.759 1196.02 C 638.932 1196.38 624.356 1198 615.924 1193.31 C 612.231 1188.05 614.856 1185.15 619.1 1181.15 z"/>
<path transform="translate(0,0)" fill="rgb(46,27,69)" d="M 558.052 1239.29 C 567.725 1239.38 591.046 1237.29 596.221 1245.04 C 596.307 1251.86 574.668 1276.78 569.375 1283.53 C 576.99 1283.14 590.096 1281.42 596.06 1285.08 C 598.9 1290.09 597.213 1292.54 592.429 1294.77 C 583.111 1294.96 555.27 1298.6 552.488 1288.13 C 554.071 1280.37 573 1258.84 579.152 1251.09 C 572.941 1251.28 553.451 1253.36 552.545 1244.69 C 554.755 1241.37 554.698 1241.55 558.052 1239.29 z"/>
<path transform="translate(0,0)" fill="rgb(242,191,90)" d="M 1475.08 1353.53 C 1477.3 1355.26 1479.85 1359.3 1481.17 1361.78 C 1487.2 1373.14 1494.56 1375.38 1505.77 1380.74 C 1489.53 1393.82 1487.56 1387.23 1477 1409.68 C 1473.66 1409.68 1472.69 1406.37 1471.3 1403.16 C 1466.28 1391.5 1457 1387.44 1446.49 1381.4 C 1464.71 1370.94 1464.31 1372.46 1475.08 1353.53 z"/>
<path transform="translate(0,0)" fill="rgb(242,191,90)" d="M 1859.61 1386.24 C 1865.71 1388.96 1866.44 1396.8 1870.71 1400.56 C 1873.55 1403.05 1881.61 1407.61 1885.14 1409.69 C 1870.58 1418.22 1868.93 1418.55 1862.07 1433.51 L 1860.94 1433.97 C 1856.81 1430.62 1856.59 1423.22 1851.83 1419.06 C 1847.52 1415.29 1842.19 1412.68 1837.19 1409.9 C 1851.1 1399.95 1852.06 1403.09 1859.61 1386.24 z"/>
<path transform="translate(0,0)" fill="rgb(242,191,90)" d="M 1913.07 1698.82 C 1918.51 1705.22 1922.32 1709.94 1929.21 1714.81 C 1920.82 1721.23 1919.02 1723.28 1913.81 1732.46 C 1906.4 1725.27 1910.71 1723.54 1896.23 1715.15 L 1897.52 1714.36 C 1906.67 1708.89 1907.72 1707.65 1913.07 1698.82 z"/>
<path transform="translate(0,0)" fill="rgb(242,191,90)" d="M 1408.75 1679.07 C 1414.77 1688.72 1416.87 1690.15 1426.74 1694.72 C 1416.93 1700.53 1415.01 1701.82 1409.36 1711.41 C 1408.59 1710.74 1408.71 1710.92 1408.11 1710.03 C 1403.43 1703.06 1398.84 1699.47 1392.38 1694.38 C 1401.33 1688.82 1403.38 1688.29 1408.75 1679.07 z"/>
<path transform="translate(0,0)" fill="rgb(242,191,90)" d="M 1838.47 1328.55 C 1845.41 1336.23 1844.86 1338.98 1854.51 1343.46 C 1847.29 1349.7 1843.86 1352.55 1839.02 1360.74 C 1837.97 1359.97 1835.82 1355.92 1834.59 1354.27 C 1830.64 1348.98 1827.33 1346.68 1821.86 1343.16 C 1832.09 1338.46 1832.63 1337.83 1838.47 1328.55 z"/>
</svg>